<?xml version="1.0" encoding="utf-8"?>
<!-- Generator: Adobe Illustrator 21.1.0, SVG Export Plug-In . SVG Version: 6.00 Build 0)  -->
<svg version="1.1" id="Layer_1" xmlns="http://www.w3.org/2000/svg" xmlns:xlink="http://www.w3.org/1999/xlink" x="0px" y="0px"
	 viewBox="0 0 88 32" style="enable-background:new 0 0 88 32;" xml:space="preserve">
<style type="text/css">
	.st0{fill:#3B5998;}
	.st1{fill:#FFFFFF;}
	.st2{fill:none;}
</style>
<rect class="st0" width="88" height="32"/>
<path class="st1" d="M13.2,12.9h2V11c0-0.8,0-2.1,0.7-2.9c0.7-0.8,1.6-1.4,3.2-1.4c2.6,0,3.7,0.3,3.7,0.3L22.2,10
	c0,0-0.9-0.2-1.6-0.2c-0.8,0-1.5,0.3-1.5,1v2.2h3.3l-0.2,2.8h-3v9.6h-3.8v-9.6h-2V12.9z"/>
<rect class="st2" width="88" height="32"/>
<g>
	<path class="st1" d="M41,18.8c0,1.8-1.6,3.1-4.1,3.1c-1.6,0-2.9-0.4-3.8-0.8c-0.2-0.1-0.4-0.4-0.4-0.7c0-0.4,0.3-0.7,0.7-0.7
		c0.1,0,0.2,0,0.3,0.1c0.7,0.3,1.8,0.7,3.2,0.7c1.6,0,2.8-0.4,2.8-1.8c0-2.4-6.8-1.1-6.8-5c0-1.8,1.4-3.3,4.1-3.3
		c1.2,0,2.3,0.2,3.2,0.5c0.2,0.1,0.4,0.3,0.4,0.6c0,0.3-0.2,0.7-0.6,0.7c-0.1,0-0.2,0-0.3-0.1c-0.7-0.3-1.6-0.4-2.6-0.4
		c-1.6,0-2.8,0.6-2.8,1.8C34.3,16.4,41,14.6,41,18.8z"/>
	<path class="st1" d="M50.2,16.6v4.5c0,0.4-0.3,0.7-0.7,0.7s-0.7-0.3-0.7-0.7v-4.4c0-1.2-0.5-2-1.8-2c-1.2,0-2,0.7-2.6,1.5v4.8
		c0,0.4-0.3,0.7-0.7,0.7c-0.4,0-0.7-0.3-0.7-0.7V10.8c0-0.4,0.3-0.7,0.7-0.7c0.4,0,0.7,0.3,0.7,0.7V15c0.7-0.7,1.6-1.5,3-1.5
		C49.1,13.5,50.2,14.9,50.2,16.6z"/>
	<path class="st1" d="M59,16.6v4.5c0,0.4-0.3,0.7-0.7,0.7c-0.4,0-0.7-0.3-0.7-0.7v-0.4c-0.6,0.6-1.5,1.2-3,1.2
		c-1.4,0-2.6-0.9-2.6-2.4c0-1.5,1.2-2.6,3.7-2.6h1.9v-0.1c0-1.4-0.7-2-2.1-2c-0.9,0-1.5,0.2-2.1,0.4c-0.1,0-0.1,0-0.2,0
		c-0.3,0-0.6-0.3-0.6-0.6c0-0.3,0.1-0.5,0.4-0.6c0.8-0.3,1.6-0.6,2.8-0.6C58,13.5,59,15.1,59,16.6z M57.6,19.5v-1.3h-1.7
		c-1.5,0-2.4,0.4-2.4,1.3c0,0.7,0.4,1.3,1.7,1.3C56.1,20.7,57,20.1,57.6,19.5z"/>
	<path class="st1" d="M66.2,14.2c0,0.4-0.3,0.7-0.7,0.7h-0.1c-1.1,0-1.9,0.6-2.5,1.4v4.9c0,0.4-0.3,0.7-0.7,0.7
		c-0.4,0-0.7-0.3-0.7-0.7v-6.9c0-0.4,0.3-0.7,0.7-0.7c0.4,0,0.7,0.3,0.7,0.7V15c0.6-0.8,1.4-1.5,2.5-1.5h0.1
		C65.9,13.5,66.2,13.8,66.2,14.2z"/>
	<path class="st1" d="M74.6,20.7c0,0.3-0.2,0.5-0.4,0.6c-0.7,0.4-1.4,0.7-2.8,0.7c-2.6,0-4.1-1.6-4.1-4.2c0-2.2,1.2-4.2,3.8-4.2
		c2.5,0,3.8,1.9,3.8,4c0,0.4-0.3,0.7-0.7,0.7h-5.4c0.2,1.4,1.1,2.4,2.8,2.4c1,0,1.6-0.2,2.2-0.5c0.1,0,0.2-0.1,0.3-0.1
		C74.3,20,74.6,20.3,74.6,20.7z M68.7,17.1h4.7c-0.1-1.7-1.3-2.3-2.4-2.3C70,14.7,68.8,15.4,68.7,17.1z"/>
</g>
</svg>
