<svg xmlns="http://www.w3.org/2000/svg" xmlns:xlink="http://www.w3.org/1999/xlink" width="185" height="346" viewBox="0 0 185 346">
    <defs>
        <path id="a" d="M0 .013h124.937v89.654H0z"/>
        <path id="c" d="M.21.026h12.251v6.618H.211z"/>
    </defs>
    <g fill="none" fill-rule="evenodd">
        <path fill="#013037" d="M153.863 62.357c-.01-.526-3.402-8.932-2.789-9.32.612-.39 10.5 2.356 14.126 6.759 3.626 4.403 16.696 17.718 15.751 18.19-.945.473-27.02-11.944-27.088-15.629"/>
        <g transform="translate(0 52)">
            <mask id="b" fill="#fff">
                <use xlink:href="#a"/>
            </mask>
            <path fill="#A8620C" d="M99.86.022c-4.959-.266-10.945 5.18-15.497 8.13l2.196-1.237c-8.965-2.553-18.802 4.397-25.02 11.797-6.867 8.17-9.007 18.65-18.195 24.085C29.38 51.058 12.522 38.987 0 50.11c12.994-2.888 17.943 5.002 26.73 16.815 3.419 4.595 7.907 9.019 12.777 11.517 7.89 4.045 10.52 4.456 16.849 4.324-2.407 1.534-8.021 3.02-9.494 2.79 17.088 7.415 44.653 4.846 59.03-8.084 20.99-18.874 31.714-75.42-6.032-77.45" mask="url(#b)"/>
        </g>
        <path fill="#8E4A01" d="M56.763 135.174c-2.402 1.518-8.003 2.988-9.472 2.761 10.51 4.524 24.99 5.287 37.913 2.214.342-.195.689-.384 1.028-.583 9.088-5.333 16.926-12.976 22.373-22.234 10.8-18.35 11.84-40.74-.762-58.332-5.108 6.4-10.396 12.643-16.147 18.428-4.49 4.518-9.28 8.624-14.077 12.78-4.19 3.631-8.379 7.356-12.957 10.461-9.534 6.467-20.002 9.157-31.304 6.936-7.137-1.403-15-4.574-22.358-4.4 6.095 2.256 10.275 8.382 16.206 16.29 3.41 4.547 7.888 8.926 12.747 11.398 7.871 4.005 10.496 4.411 16.81 4.28"/>
        <path fill="#BB6638" d="M99.85 316c.577 1.15 1.014 1.907 1.98 2.802.844.905 1.825 1.565 3.046 1.846.034.013-.683-.799-.65-.79 3.488 6.883 9.513 18.031 11.324 21.22.02.036-.03-.003-.123-.082 2.244 3.822 1.429 3.164 1.429 3.164s-1.258 2.25-1.739 1.774c-.763-.755-5.868-3.034-6.47-3.778C101.93 333.762 93 322.33 93 322.33l3.058-2.827c.631-.815 2.484-2.231 3.792-3.502"/>
        <path fill="#E99F67" d="M112.071 263.203L129 198.658s-20.203-16.432-24.142-8.49L100 262.903c2.782 2.964 9.37 2.53 12.071.301"/>
        <path fill="#006A97" d="M102.821 320.87c-2.177.67-4.39-1.405-5.821-2.728l2.212-52.242c.292-6.38 3.335-12.82 3.797-12.875 2.348-.29 2.81 2.016 4.82 2.414 2.952.58 3.864 4.479 4.171 6.617l-8.035 58.345c-.402.185-.787.36-1.144.47"/>
        <path fill="#FCC58B" d="M141.491 89.901c-4.03-1.123-2.24-8.367-1.042-12.762L156.693 43 161 44.948l-10.891 34.736s-4.036 11.494-8.618 10.217"/>
        <path fill="#21404D" d="M118.786 129.3s1.7 11.915 4.973 9.334c6.26-4.937 25.159-20.7 29.424-24.683C159.99 107.594 172 90.919 172 90.919L141.288 76s-3.42 10.653-6.553 15.801c-3.225 5.297-14.273 14.326-18.488 17.521-3.348 2.54-3.307 20.973 2.539 19.979"/>
        <path fill="#FCC58B" d="M155.911 46.88c.294-.445-.911-7.96-.911-7.96l.05-7.413 1.564-1.894 1.444 7.881 4.512-5.763L167.017 25l1.611.73-4.008 8.465 5.785-7.384.651.538-3.874 7.786 5.129-4.737.689 1.028-3.798 5.146 2.57-2.701.372.857-5.48 6.39-6.26 6.882-4.493-1.12z"/>
        <path fill="#BB6638" d="M44.363 199.74c-1.105-.57-1.877-.91-3.13-1.027-1.17-.204.1.74-1 1.282 2.061.074-1.42-.64-1.452-.628-6.634-3.391-17.667-8.65-20.893-10.1-.036-.017.024-.019.143-.011-3.921-1.69-2.915-1.67-2.915-1.67s-.325-2.627.317-2.543c1.02.132 6.258-1.244 7.147-1.018 9.984 2.583 23.42 6.236 23.42 6.236l-.731 4.234c-.018 1.062-.63 3.385-.906 5.245"/>
        <path fill="#E99F67" d="M73.51 251.849L112 196.545s-15.078-19.242-21.384-13.462L63 244.883c1.494 3.8 7.297 7.968 10.51 6.966"/>
        <path fill="#EF9F5D" d="M98.95 111.002c-1.157-.87-2.184-1.865-3.164-2.91L92 83.649 104.498 82 107 108.458c-1.966 2.716-4.932 4.889-8.05 2.544"/>
        <path fill="#FCC58B" d="M122.208 67.182c3.168 13.99-3.43 31.603-15.09 34.425-12.614 3.053-29.337-12.266-32.507-26.26-3.174-13.992 6.368-26.554 20.35-29.775 13.98-3.224 24.072 7.617 27.247 21.61"/>
        <path fill="#006A97" d="M39.652 196.64c1.366-1.994 4.072-1.666 5.978-1.538l29.054 45.24c.237 2.917 1.507 8.941 1.291 9.385-1.38 2.825-3.036 4.183-5.188 4.268-3.071.122-4.305-2.207-4.854-3.298L39 197.782c.215-.42.428-.817.652-1.143"/>
        <path fill="#804927" d="M90.1 78.501c.345 1.632 1.471 2.732 2.52 2.457 1.052-.277 1.624-1.824 1.28-3.455-.345-1.634-1.472-2.737-2.522-2.46-1.05.274-1.623 1.824-1.277 3.458M111.098 74.5c.346 1.632 1.475 2.734 2.525 2.457 1.05-.28 1.62-1.823 1.277-3.457-.344-1.633-1.472-2.733-2.52-2.458-1.05.276-1.622 1.824-1.282 3.458"/>
        <path fill="#B66C40" d="M108 66.16s2.99-.894 5.481-1.106c1.777-.15 4.519.059 4.519.059l-.462 1.115s-1.44.376-3.382.49c-1.932.112-5.34 1.282-5.34 1.282L108 66.16zM93.819 68s-3.232.341-5.653 1.157C86.44 69.743 84 71.081 84 71.081l.998.919s1.53-.22 3.392-.907c1.849-.685 5.61-.923 5.61-.923L93.819 68z"/>
        <path fill="#A8620C" d="M109.724 59.448c.729.482 12.722 5.597 13.782 12.89 1.06 7.291.777-11.532-4.524-15.433-5.3-3.9-14.911-1.187-9.258 2.543"/>
        <path fill="#FEFEFE" d="M121.007 172.68a2.5 2.5 0 1 0 4.988-.363 2.5 2.5 0 0 0-4.988.364"/>
        <path fill="#E99F67" d="M127.367 204.679s5.653-8.596 2.856-21.45C128.03 173.145 121.446 161 121.446 161l-18.839 2.722s-13.5 12.645-14.395 20.823c-.783 7.158.854 16.994.854 16.994s36.812 7.398 38.3 3.14"/>
        <path fill="#FCC58B" d="M81.716 82.394c.676 3.563.207 6.085-2.084 6.562-2.289.477-7.782-3.001-8.46-6.566-.68-3.565.72-3.811 3.01-4.29 2.29-.479 6.857.729 7.534 4.294"/>
        <path fill="#D17E54" d="M105.55 78c.301.047-.527.051-.708.234 2.503 1.07 5.029 2.869 4.727 3.785-.461 1.397-2.663 1.43-5.569 1.488a.717.717 0 0 0 .276.193c1.175.35 6.116.765 6.676-1.126.65-2.19-5.503-4.586-5.403-4.574"/>
        <path fill="#A8620C" d="M73.652 89.65c2.243 3.512 10.503-20.388 22.803-27.371 12.465-7.077-10.99-9.909-23.295.883-12.304 10.79-2.953 21.092.492 26.488"/>
        <path fill="#013037" d="M133.992 27.843S93.08 51.092 89.033 51.845c-4.046.752-39.26-1.441-40.98-2.043-1.719-.6 38.401-23.164 40.362-23.682 1.961-.519 46.25.755 45.577 1.723"/>
        <path fill="#FEC313" d="M111.61 25.019c3.885.256 5.93 2.227 7.385 4.498 1.456 2.27 7.077 11.442 7.077 11.442.018.082.02.155.016.222C130.816 46.995 142 63.79 142 63.79l-1.68 1.106-5.1-7.523c2.52 4.58 4.471 8.235 4.471 8.235l-1.78.936-5.163-9.486a825.827 825.827 0 0 1 4.108 10.224l-1.874.717-10.513-26.15-.777-1.427c-1.717-2.79-5.776-9.392-6.485-10.604-.902-1.543-2.208-2.909-3.567-3.28-1.358-.372-5.64-.6-5.64-.6s.954-1.094 3.61-.92"/>
        <path fill="#4A5E66" d="M121 57.286l-5.779-19.844c-4.953-2.088-12.656-1.993-25.782.84C74.576 41.489 65.185 49.142 65 49.655L66.891 65c4.221-1.763 12.072-2.765 19.632-2.86 3.743-.045 11.985.987 15.73 1.41 5.748-4.845 12.41-6.264 18.747-6.264"/>
        <path fill="#013037" d="M44.366 94.09c-.205-.476-13.232-8.243-13.349-8.951-.71-4.265 20.538-3.733 25.5-1.083 4.96 2.651 7.043 4.947 6.355 5.734-.687.787-17.066 7.635-18.506 4.3"/>
        <path fill="#FCC58B" d="M47.63 116.87c-3.572-1.556-2.776-7.244-1.819-11.055L57.05 75 62 76.196l-5.993 33.747s-5.496 8.18-8.378 6.926"/>
        <path fill="#21404D" d="M31 86l2.825 9.507c3.587 11.793 7.684 23.85 8.182 25.017 1.872 1.773 4.932-1.945 7.549-2.402 2.99-.52 11.209 1.194 13.424-4.569L63 90.34c-8.393-.404-29.287-1.526-32-4.34"/>
        <path fill="#F37C20" d="M54.281 94.44c-7.118.483-17.65-.507-21.281-3.44.926 2.777 1.685 5.937 2.538 8.775 2.542 2.304 16.704 2.73 21.215 1.686 2.73-.633 6.118-.931 7.142-2.107L64 93.138c-1.737.735-3.242.861-9.719 1.302"/>
        <path fill="#21404D" d="M151.865 53l-2.305 4.616c-3.984 9.31-12.725 31.382-15.48 38.51-3.85 9.959 3.832 2.274 3.849 3.557 1.045 2.372 5.418 4.437 7.36 2.63 3.668-3.419 20.214-1.134 25.248-8.917L181 77.62c-7.541-3.59-27.711-20.953-29.135-24.62"/>
        <path fill="#F37C20" d="M149.838 68.346c3.523 3.158 19.05 15.872 23.62 17.13.703.193 1.439.364 2.19.524L179 80.985a33.08 33.08 0 0 1-6.479-2.836C168.345 75.746 152.027 62.123 148.9 58l-.159.314A333.176 333.176 0 0 1 146 64.488c1.221 1.514 2.733 2.868 3.838 3.858"/>
        <path fill="#21404D" d="M84.391 110.991c-2.385 2.316-4.778 46.723-5.191 52.9-1.546 23.143-5.363 41.594-6.601 42.83-1.238 1.235-17.535.823-17.535.823s-.756 16.347 2.917 39.475c.365 2.301-3.173 2.082-2.902 4.706.361 3.481 2.455 10.41 3.595 13.68 8.507 24.375 28.603 39.76 37.833 42.708 2.148.686 4.743 1.887 7.303 1.887.43 0 1.117-3.688 1.265-3.66 10.733 1.945 29.575-.228 36.983-3.186 3.094-1.235-2.203-65.969-4.816-106.657-1.851-28.837-8.945-68.846-9.564-70.699-.619-1.853-7.427-14.648-8.355-16.28-.928-1.634-16.18-2.774-17.837-3.44-1.657-.665-15.205 3.078-17.095 4.913"/>
        <path fill="#F37C20" d="M95.237 106s6.364 18.207 7.808 23.287c2.526 8.88 3.814 51.078 3.954 53.104.14 2.026-10.706 15.609-10.706 15.609s-9.696-13.242-9.28-14.865c1.428-5.575 5.81-46.161 5.391-52.238-.419-6.077-2.9-19.56-3.778-21.064-.507-.873 6.611-3.833 6.611-3.833M116.372 105.877s9.497 14.706 10.628 19.899c1.132 5.192 13.714 48.681 13.986 50.7.27 2.02-3.346 17.524-3.346 17.524s-11.622-13.355-12.264-14.913c-.642-1.558-6.637-46.905-7.452-52.963-.813-6.058-6.303-19.728-7.743-20.767-1.44-1.039 6.19.52 6.19.52"/>
        <path fill="#EF9F5D" d="M95.033 107.473S108.024 122 108.775 122c.751 0-.594-14.616-.876-14.794-.281-.177-6.694-2.206-6.694-2.206s-6.735 1.94-6.172 2.473"/>
        <path fill="#21404D" d="M60.754 102.051c-.762-.387-16.269 1.496-18.541 3.383-2.273 1.888-1.056 13.117 1.217 15.424 2.273 2.306 16.578 8.958 25.98 13.898 8.727 4.585 18.256 10.334 17.553 7.483-.18-.734-1.505-32.153-2.571-32.172-1.067-.019-18.266-5.29-23.638-8.016"/>
        <path fill="#D74855" d="M109.402 92.531c.152-.374.317-.745.514-1.108l.028-.053c.018-.043.04-.085.057-.127.087-.196.175-.392.265-.587.42-.932.87-1.85 1.368-2.748.105-.31.231-.611.366-.908l-.748.054c-2.188.598-4.338 1.101-6.177 1.256a29.435 29.435 0 0 1-6.69-.2l-.385.027s2.266 6.153 7.703 5.852a6.193 6.193 0 0 0 3.695-1.448l.004-.01"/>
        <path fill="#FEFEFE" d="M111.46 88.337c.017-.031.032-.064.048-.095.138-.427.307-.838.492-1.242-2.448.732-5.511 1.389-7.555 1.572-2.348.21-4.706.121-7.025-.226l-.42.035s.081.228.246.58c1.397 1.217 3.52 2.179 6.635 2.022 3.198-.16 5.85-.832 7.58-2.646"/>
        <path fill="#183541" d="M112.69 188L116 306l-11-.558s7.69-113.751 7.69-117.442M83 219s-4.821 7.844-9.628 11.843c-1.44 1.198-16.372 7.74-16.372 7.74L58.064 248s12.184-6.857 17.193-11.715C81.247 230.475 83 219 83 219M72.047 206.931c-.61.34 4.945-.65 5.955-1.329C80.848 203.69 86 188 86 188s-7.488 12.455-8.678 13.45c-1.191.998-3.233 2.16-3.233 2.16s-.851 2.657-2.042 3.321"/>
        <path fill="#E3F4FC" d="M184 62.975S156.11 3.802 154.718 1.506C153.325-.788 144 5.46 144 5.46L172.899 68 184 62.975z"/>
        <path fill="#E3F4FC" d="M144.086 4.876c-.533-1.292 1.46-3.18 4.45-4.217 2.992-1.035 5.847-.828 6.378.464.532 1.292-1.458 3.18-4.45 4.217-2.989 1.037-5.844.83-6.378-.464"/>
        <g transform="translate(172 63)">
            <mask id="d" fill="#fff">
                <use xlink:href="#c"/>
            </mask>
            <path fill="#94CCD4" d="M.282 5.412C-.228 3.99 2.072 1.907 5.415.76c3.345-1.147 6.466-.927 6.976.497.508 1.423-1.793 3.506-5.137 4.652C3.91 7.057.79 6.836.282 5.412" mask="url(#d)"/>
        </g>
        <path fill="#DA1A21" d="M158 38.44c.467 1.19.938 2.376 1.41 3.56l.026-.012a19.022 19.022 0 0 1 2.526-1.83c3.176-1.897 6.502-2.904 10.038-3.317-.49-.955-.973-1.916-1.46-2.876.094.19-.26-.485-.51-.965-1.583.171-9.483 1.508-12.03 5.44"/>
        <path fill="#FCC58B" d="M155.291 40.003c-.023-.355-.291-5.764-.291-6.408 0-.644 1-5.797 1.222-6.313.223-.515 1.555-.386 1.333.902-.221 1.288-.555 5.411-.555 5.411l2 8.245s-3.528.964-3.709-1.837M63.288 77c.35-.554 8.15-3.928 8.15-3.928l6.155-3.615-.354-1.663-7.63 1.706 3.66-6.607L79 54.73l-1.399-1.207-7.29 8.94L76.595 52 74.944 52l-6.625 8.415 5.25-7.34-2.024.099-4.895 5.692 1.496-2.044-2.583 1.314-4.314 7.253L58 76.817l5.288.183z"/>
        <path fill="#013037" d="M83 111.037c-.125 1.383 24.235 12.186 24.971 11.96.737-.227-12.78-16.546-13.403-16.96-.623-.413-11.36 2.723-11.568 5M108.322 121.994c-.237.337-.571-14.361-.741-14.68-.17-.32-1.398-.847-1.398-.847s-.226-2.41-.176-2.456c.155-.141 9.58 1.126 10.914 2.262.904.77-6.204 12.316-8.6 15.721"/>
    </g>
</svg>
