<svg xmlns="http://www.w3.org/2000/svg" xmlns:xlink="http://www.w3.org/1999/xlink" width="102" height="329" viewBox="0 0 102 329">
    <defs>
        <path id="a" d="M.054.117H41.74v50.45H.054z"/>
    </defs>
    <g fill="none" fill-rule="evenodd">
        <path fill="#814400" d="M56.792 8.012c1.228.064 6.108-.145 10.135 22.962 5.42 31.11-1.03 67.115-5.222 71.085-2.091 1.98-47.536.586-49.248-1.87-1.71-2.454-5.481-85.119 2.126-86.295 7.608-1.179 36.76-6.168 42.21-5.882"/>
        <path fill="#582000" d="M14.602 14.292c5.992-.92 25.306-3.07 35.993-4.292 4.519 7.052 8.177 12.256 9.92 20.299 2.381 11 2.741 24.011 2.349 35.359-.385 11.11-1.748 22.21-4.782 32.935a149.06 149.06 0 0 1-1.267 4.235c-12.413.655-42.948-.634-44.346-2.625-1.719-2.445-5.506-84.74 2.133-85.91"/>
        <path fill="#FAB376" d="M26 296.034L26.007 310l6.993-.682-.382-15.31c-2.695-.168-3.923 2.18-6.618 2.026M46.598 292.727a9.27 9.27 0 0 1-.717-.255 83.838 83.838 0 0 0-1.858-.077 50.47 50.47 0 0 1-4.385-.395L39 313.623l6.467.377L48 293.102c-.463-.101-.93-.223-1.402-.375"/>
        <path fill="#FAB376" d="M39.774 310.907C39.87 309.003 41.1 303 41.1 303s21.692 11.726 26.825 14.169c.037.017-.028.014-.149.004 4.043 1.851 7.176 3.27 7.176 3.27s.254 2.66-.414 2.554c-1.066-.17-10.77-.464-11.698-.724C52.49 319.3 39 315.503 39 315.503l.774-4.596z"/>
        <path fill="#E15766" d="M39.783 311c4.215 1.885 8.32 4.042 12.646 5.67a48.824 48.824 0 0 0 9.547 2.528c1.932.314 4.683-.712 6.771-1.485 3.562 1.599 6.205 2.778 6.205 2.778s.255 2.61-.412 2.506c-1.067-.165-10.77-.457-11.698-.715C52.489 319.362 39 315.63 39 315.63l.776-4.512a.725.725 0 0 1 .007-.118"/>
        <path fill="#FAB376" d="M33.641 312.793c-.34-1.908-2.334-7.793-2.334-7.793s-19.99 14.91-24.763 18.101c-.035.025.03.016.148-.015C2.922 325.53 0 327.404 0 327.404s5.475 1.782 6.125 1.58c1.033-.32 5.23-1.056 6.114-1.45C22.116 323.067 35 317.32 35 317.32l-1.359-4.527z"/>
        <path fill="#E15766" d="M33.618 313c-3.93 2.349-7.718 4.943-11.79 7.061a50.3 50.3 0 0 1-9.136 3.667c-1.872.553-4.404-.786-5.491-1.485C3.878 324.236 0 326.669 0 326.669s3.483 2.432 5.283 2.328c1.728-.099 6.069-1.853 6.955-2.217C22.118 322.633 35 317.3 35 317.3l-1.356-4.192-.026-.108"/>
        <path fill="#6CB0CF" d="M63.53 160.878c-.541-3.687-6.194-15.367-10.359-21.878-10.115 3.759-23.242 3.387-34.012.254-3.968 6.235-9.829 18.837-9.829 18.837-2.751 10.419-.381 21.208-.381 21.208s.026.018.083.05l7.016 49.214.917 13.148L23.995 302c2.825-.25 7.468-.61 10.743-1.384l-.889-60.378-.78-14.013.38-47.737c.202-1.617.696-3.19 2.246-3.264 1.525.011 2.662 1.887 3.274 3.614l1.303 48.34-1.025 15.673-.907 57.793c3.3 1.583 7.36.903 10.359.528l5.742-56.591 1.64-16.045 6.713-50.69.243-.053s1.786-8.128.493-16.915"/>
        <path fill="#FAB376" d="M65.844 90.88c.65-.307 1.309-.59 1.965-.88l19.18 44.937L88 141l-11.76-5.043L55 97.173c3.492-2.307 7.053-4.505 10.844-6.293"/>
        <path fill="#DC4A60" d="M56.66 103.998c2.271-.142 13.988-1.814 17.34-5.592l-5.517-13.37C64.986 74.813 48 73 48 73l6.498 29.142c1.317-.313.805 1.94 2.162 1.856"/>
        <path fill="#FAB376" d="M63.005 120.038c2.691.343 7.472 4.419 6.956 16.446l-2.705 23.44L61.618 162l-4.4-24.71s-1.943-18.234 5.787-17.252"/>
        <path fill="#804927" d="M49.786 155L27 154.509 27.132 142l24.868.633z"/>
        <path fill="#EE5E78" d="M9.87 107.424L7 94.071l4.317-14.529L35.125 71l21.978 5.996 8.715 32.063.182 3.407c-1.264 5.384-4.515 6.46-4.515 7.538 0 2.825-3.6 26.703-2.032 35.884 1.428 8.362 2.056 16.62 1.989 16.665-2.81 1.894-53.102-2.732-53.604-4.494-.12-.42 4.32-30.564 4.536-33.157.126-1.494-1.087-16.487-2.505-27.478"/>
        <path fill="#F1AD6F" d="M21 73.825L34.1 69 49 72.86c-1.143 6.96-4.837 17.744-9.412 18.134-3.092.266-13.897-8.543-18.588-17.169"/>
        <path fill="#D0611B" d="M65.506 158.164c22.604-.818 30.174 1.63 33.94 2.775 4.655 1.412 1.524 8.06 1.524 8.06L70.85 186 33 167.493l32.506-9.329z"/>
        <path fill="#AD4612" d="M71.262 182.737s1.396 3.096.348 3.262c-1.05.169-38.296-18.242-38.296-18.242s-.797-1.164.149-1.94c1.087-.894 4.037-2.715 6.832-3.683 5.227-1.812 31.656 15.303 31.656 15.303l-.69 5.3z"/>
        <path fill="#DCDADA" d="M34 159.784L64.842 155c19.933 2.556 29.56 4.746 33.418 6.978 4.232 2.442-.586 5.833-.586 5.833L71.682 183 34.47 165.87 34 159.783z"/>
        <path fill="#FEFEFE" d="M72 184l-37.618-16.948c.513-1.9-.78-6.039-.253-7.052l5.742.349c4.153.881 30.598 11.578 31.609 13.661 0 0-1.607 4.273.445 9.673.046.12.065.224.075.317"/>
        <path fill="#D0611B" d="M33.002 156.45L62.696 148c1.438-.106 37.304 11.582 37.304 11.582l-1.467.56L69.253 176 33 157.895l.002-1.445z"/>
        <path fill="#AD4612" d="M68.89 176l.11-2.274L33.277 157l-.196.566-.081 1.351z"/>
        <path fill="#FDCF00" d="M68.284 146.037c-22.642-.384-29.976 2.304-33.722 3.522-4.633 1.506-1.567 8.006-1.567 8.006L63.471 174 101 154.747l-32.716-8.71z"/>
        <path fill="#EAAA13" d="M62.792 170.81s-1.348 3.046-.29 3.19c1.061.14 38.199-18.543 38.199-18.543s.782-1.15-.183-1.888c-1.111-.847-4.115-2.566-6.945-3.456C88.28 148.45 62 165.656 62 165.656l.792 5.155z"/>
        <path fill="#FEFEFE" d="M100 147.24L69.026 143c-19.91 2.979-29.509 5.388-33.329 7.723-4.19 2.558.698 5.897.698 5.897L63.331 171l36.317-17.586.352-6.174z"/>
        <path fill="#DCDADA" d="M63.34 172l35.403-17.729c-.53-1.946.646-6.236.116-7.271l-5.545.474c-4.001.994-29.374 12.544-30.314 14.71 0 0 2.291 3.784.407 9.386a2.108 2.108 0 0 0-.067.43"/>
        <path fill="#FDCF00" d="M100.971 143.831l-29.867-7.83C69.662 135.922 34 148.258 34 148.258l1.479.525L65.07 164 101 145.27l-.029-1.439z"/>
        <path fill="#EAAA13" d="M65.154 165L65 162.694 100.683 145l.21.57.107 1.37z"/>
        <path fill="#AD4612" d="M65.676 134.074c-21-.563-27.812 2.224-31.29 3.484-4.301 1.559-1.474 8.442-1.474 8.442l29.33 15L96 143.496l-30.324-9.422z"/>
        <path fill="#D0611B" d="M62.468 156.862s-1.228 2.988-.27 3.137c.96.148 33.53-15.532 33.53-15.532s.71-1.128-.163-1.858c-1.002-.844-3.717-2.557-6.275-3.452-4.788-1.673-28.29 10.54-28.29 10.54l1.468 7.165z"/>
        <path fill="#FEFEFE" d="M95 136.538L66.39 132c-18.405 2.906-27.28 5.3-30.815 7.656-3.88 2.583.629 6.023.629 6.023L62.162 158l32.497-15.163.341-6.299z"/>
        <path fill="#DCDADA" d="M62.95 157l32.79-14.8c-.5-1.934.63-6.174.128-7.2l-5.283.431c-3.816.954-27.683 7.555-28.585 9.694 0 0 2.76 5.297.95 10.835-.04.121.01.944 0 1.04"/>
        <path fill="#AD4612" d="M95.976 133.899L68.36 126C67.029 125.916 34 137.814 34 137.814l1.366.528L63.044 149 96 135.314l-.024-1.415z"/>
        <path fill="#D0611B" d="M62.142 149L62 146.726 95.704 134l.198.565.098 1.35z"/>
        <path fill="#45A6DD" d="M64.18 123.002c20.013-.09 26.405 2.74 29.675 4.029 4.044 1.592 1.128 8.16 1.128 8.16L66.567 149 35 131.42l29.18-8.418z"/>
        <path fill="#4A84B1" d="M66.365 145.94s1.064 2.934.15 3.06c-.915.122-31.287-15.836-31.287-15.836s-.637-1.112.218-1.808c.977-.799 3.611-2.407 6.07-3.226C46.113 126.604 68 138.993 68 138.993l-1.635 6.947z"/>
        <path fill="#DCDADA" d="M37 123.892L63.967 120c17.158 3.3 25.398 5.88 28.636 8.308 3.55 2.657-.787 5.985-.787 5.985L67.08 146l-29.966-15.826-.114-6.282z"/>
        <path fill="#FEFEFE" d="M66.812 146l-30.771-14.987c.54-1.872-.393-6.02.118-7.013l5.006.534c3.594 1.01 26.05 7.947 26.835 10.047 0 0-2.773 5.672-1.238 11.101.035.12.045.224.05.318"/>
        <path fill="#45A6DD" d="M37.07 121.277L62.806 114C64.038 113.944 94 126.664 94 126.664l-1.172.313L66.938 137 37 122.686l.07-1.409z"/>
        <path fill="#4A84B1" d="M66.798 138l.202-2.314L37.328 122l-.195.571-.133 1.375z"/>
        <path fill="#D0611B" d="M65.448 110c19.94.614 26.468 3.57 29.666 5.022 3.957 1.791.458 8.683.458 8.683L66.638 137 36 117.689 65.448 110z"/>
        <path fill="#AD4612" d="M67.02 133.765s.939 3.135.01 3.235c-.927.1-30.84-17.809-30.84-17.809s-.588-1.191.304-1.899c1.026-.81 3.763-2.414 6.28-3.186C47.49 112.657 69 126.5 69 126.5l-1.98 7.266z"/>
        <path fill="#DCDADA" d="M39.161 111.042L65.887 108c16.754 4.04 24.755 7.008 27.84 9.637 3.38 2.88-1.038 6.163-1.038 6.163L67.822 135 39 117.542l.161-6.5z"/>
        <path fill="#FEFEFE" d="M67.674 134L39 116.94c.596-1.933.095-5.927.626-6.94l4.233.096c3.382 1.18 24.484 9.209 25.141 11.428 0 0-2.584 6.428-1.359 12.143.027.127.034.236.033.333"/>
        <path fill="#D0611B" d="M39.132 108.124L65.207 100C66.44 99.986 96 115.768 96 115.768l-1.301.48L68.323 126 39 109.618l.132-1.494z"/>
        <path fill="#AD4612" d="M67.657 126l.343-2.504L38.933 108l-.79.554-.143 1.649z"/>
        <path fill="#FCC077" d="M75 109.484c-.792-.274-9.533-4.484-9.533-4.484L49 109.726 59.321 114 75 109.484z"/>
        <path fill="#FAB376" d="M15.844 101.88c.65-.307 1.309-.59 1.966-.88l19.178 44.937L38 152l-10.412-5.104L5 108.173c3.492-2.307 7.053-4.505 10.844-6.293"/>
        <path fill="#DC4A60" d="M17.169 111.678c-2.11.701-8.133 1.948-10.287 2.322L1.321 93.452C-1.191 83.305 11.876 78 11.876 78L24 107.947c-1.21.526-3.415 2.596-6.831 3.731"/>
        <path fill="#FAB376" d="M27.054 132.859c-2.208 1.71-4.2 7.464 2.85 18.337L45.128 172 51 170.696l-10.944-25.004s-6.662-17.743-13.002-12.833"/>
        <path fill="#FAB376" d="M58.936 181.89l-.65-2.956-3.747-7.058 5.09 4.223c.356-.172 2.012.032 2.371-.643l-7.351-7.162s-9.507-4.722-9.868-5.294L41 166.377l7.06 13.95c1.34.369 3.18.522 3.054.161l.697.177s.744.637.749.637c.235.223 2.184 1.014 2.973.56l-1.22-3.616 1.828 3.323c.13.254 2.775.34 2.795.32"/>
        <path fill="#F1AD6F" d="M28.447 73.582L26 44.63 37.12 42 42 72.659c-3.357 3.57-8.881 2.362-13.553.923"/>
        <path fill="#FCC58B" d="M11.483 39.369c2.263 15.154 21.908 30.055 32.308 27.3 13.537-3.585 18.975-22.402 16.711-37.557-2.26-15.155-16.245-23.974-30.956-21.78C14.833 9.524 9.223 24.215 11.483 39.37"/>
        <path fill="#814400" d="M64.844 20.39c2.565 13.733.581 11.565-3.209 20.558-.57 1.354 1.033-24.29-18.994-29.465-3.249-.84-2.777-8.102-2.304-8.98.472-.873 11.998-1.34 17.695 5.02 2.226 2.484 5.21 4.288 6.812 12.868"/>
        <g transform="matrix(-1 0 0 1 49 0)">
            <mask id="b" fill="#fff">
                <use xlink:href="#a"/>
            </mask>
            <path fill="#814400" d="M41.692 35.482c.688 8.177-6.215 11.624-6.498 14.845-.193 2.255-1.74-11.823-14.307-24.108C17.494 22.9-.689 12.733.077 8.91 1.925-.3 14.664.107 15.583.123 21.737.22 31.268 3.1 36.84 14.916c2.753 5.84 4.341 14.48 4.852 20.566" mask="url(#b)"/>
        </g>
        <path fill="#B66C40" d="M32 31.054s-3.482-.183-6.207.125c-1.941.224-4.793.946-4.793.946l.858.873s1.659.04 3.767-.245c2.094-.285 6.111.055 6.111.055L32 31.054z"/>
        <path fill="#814400" d="M52.975 13.387c-.148.743-7.96 13.707-17.092 17.38C26.75 34.439 14 41 14 41s13.533-13.806 15.739-14.96c2.206-1.153 16.94-13.56 16.94-13.56s6.78-1.544 6.296.907"/>
        <path fill="#814400" d="M17.984 7.552c-1.143.762-7.823 6.092-12.73 38.577C-.018 81.061.404 90.311 2.295 94.064c1.89 3.754 17.867 11.135 20.78 10.932 2.911-.203-2.377-35.795-2.624-57.794-.16-14.3 4.838-23.648 6.115-28.593 1.278-4.945.114-16.843-8.58-11.057"/>
        <path fill="#804927" d="M29 41.509c-.003 1.932 1.111 3.494 2.491 3.491C32.876 44.995 34 43.428 34 41.497c.002-1.935-1.111-3.501-2.493-3.497-1.382.002-2.505 1.575-2.507 3.509M51 41.506c0 1.933 1.114 3.499 2.495 3.494 1.382-.007 2.5-1.574 2.505-3.507.002-1.932-1.111-3.496-2.491-3.493-1.38.003-2.501 1.574-2.509 3.506"/>
        <path fill="#B66C40" d="M50 33.116s3.458-.267 6.183.009c1.944.198 4.817.912 4.817.912l-.818.952s-1.649.078-3.76-.185c-2.099-.262-6.083.183-6.083.183L50 33.116zM35 32.156s-3.445-.304-6.171-.064c-1.945.173-4.829.844-4.829.844l.796.949s1.645.096 3.758-.138c2.1-.234 6.065.253 6.065.253L35 32.156z"/>
        <path fill="#D17E54" d="M45.139 44c.316.122-.588-.072-.832.077 2.445 1.733 4.724 4.243 4.153 5.139-.87 1.365-3.277.868-6.46.23.075.118.156.217.25.27 1.188.652 6.463 2.282 7.571.42 1.286-2.158-4.789-6.173-4.682-6.136"/>
        <path fill="#D74855" d="M45.806 60.226c.258-.358.53-.709.833-1.046l.043-.049c.03-.04.064-.08.094-.12.143-.186.288-.372.434-.555a41.33 41.33 0 0 1 2.164-2.571c.193-.301.405-.59.626-.87l-.8-.114c-2.456.126-4.846.161-6.818-.098a31.316 31.316 0 0 1-6.97-1.743L35 53s.746 6.978 6.534 7.908a6.845 6.845 0 0 0 4.264-.673l.008-.009"/>
        <path fill="#FEFEFE" d="M49.158 56.627c.024-.03.046-.063.07-.093.234-.436.496-.849.772-1.247-2.567.186-5.718.134-7.76-.183a27.055 27.055 0 0 1-6.82-2.035L35 53s.026.273.106.704c1.08 1.7 2.931 3.3 6.016 3.92 3.167.636 5.918.567 8.036-.997"/>
    </g>
</svg>
