<svg xmlns="http://www.w3.org/2000/svg" width="18" height="18" viewBox="0 0 18 18">
    <path fill="#6E6E6E" fill-rule="evenodd" d="M2.636 2.636a9 9 0 1 0 12.73 12.728A9 9 0 0 0 2.636 2.636zm6.725 1.14c.76 0 1.367.627 1.367 1.387S10.101 6.55 9.361 6.55c-.76 0-1.387-.627-1.387-1.406 0-.76.627-1.368 1.387-1.368zm1.956 9.29a.905.905 0 0 1-.19.322c-.494.513-1.101.817-1.824.817-.342 0-.664 0-1.007-.057-.55-.076-1.254-.76-1.159-1.482l.228-1.482c.152-.855.304-1.73.456-2.584 0-.057.02-.114.02-.17 0-.361-.115-.495-.476-.533-.152-.02-.304-.038-.456-.076-.17-.057-.265-.209-.247-.342.02-.152.115-.247.305-.285.095-.019.209-.019.322-.019h2.623c.322 0 .512.152.512.475 0 .266-.038.532-.095.798-.17.987-.36 1.957-.532 2.944-.057.323-.133.646-.17.97-.02.152 0 .322.037.474.057.21.21.323.418.305.17-.02.342-.076.513-.152.132-.058.247-.153.38-.19.229-.075.4.057.342.266z"/>
</svg>
