<svg xmlns="http://www.w3.org/2000/svg" width="64" height="64" viewBox="0 0 64 64">
    <path fill="#ffffff" fill-rule="evenodd" d="M61.14 51.08h.016l.711 7.68h-9.244l.71-7.68h.017a4.345 4.345 0 0 1 1.214-2.689 4.377 4.377 0 0 1-1.23-3.072c0-1.64.87-3.06 2.133-3.759V20.67l-23.35 8.907L0 17.414 32.117 5 64 17.414l-4.977 1.899V41.56c1.263.699 2.133 2.118 2.133 3.759a4.377 4.377 0 0 1-1.23 3.072 4.345 4.345 0 0 1 1.213 2.688zM32.121 33.647l1.178-.45 17.867-6.816-1.39 17.02c0 3.392-7.957 8.303-17.777 8.303s-17.778-4.91-17.778-8.304L12.83 26.342 30.942 33.2l1.18.447z"/>
</svg>
