<svg xmlns="http://www.w3.org/2000/svg" width="64" height="64" viewBox="0 0 64 64">
    <path fill="#FFF" fill-rule="evenodd" d="M61.482 5H22.518A2.494 2.494 0 0 0 20 7.519v25.278a2.494 2.494 0 0 0 2.518 2.518H44.77l10.067 10.07c.806.805 2.115.202 2.115-.906v-9.164l4.53-.002A2.494 2.494 0 0 0 64 32.794V7.52A2.493 2.493 0 0 0 61.482 5zM31 22.32c-1.7 0-3-1.323-3-3.056 0-1.732 1.3-3.056 3-3.056s3 1.324 3 3.056c-.003 1.733-1.302 3.057-3 3.057zm12 0c-1.7 0-3-1.323-3-3.056 0-1.732 1.3-3.056 3-3.056s3 1.324 3 3.056c0 1.733-1.401 3.057-3 3.057zm11 0c-1.7 0-3-1.323-3-3.056 0-1.732 1.3-3.056 3-3.056s3 1.324 3 3.056c0 1.733-1.3 3.057-3 3.057zM18.366 32.849c0 2.518 2.12 4.53 4.644 4.53l20.99.003v8.66a2.497 2.497 0 0 1-2.524 2.519H19.174L9.084 58.629c-.708.808-2.12.202-2.12-.905V48.56h-4.44A2.497 2.497 0 0 1 0 46.04V20.764a2.497 2.497 0 0 1 2.524-2.519h15.842v14.603z"/>
</svg>
