<svg xmlns="http://www.w3.org/2000/svg" width="64" height="64" viewBox="0 0 64 64">
    <path fill="#662E91" fill-rule="evenodd" d="M63.314 28.136l-9.655-5.106 3.228-10.434c.13-.462.014-.949-.32-1.292L52.704 7.44a1.304 1.304 0 0 0-1.292-.318L40.99 10.349 35.867.696A1.317 1.317 0 0 0 34.722 0h-5.454c-.473 0-.91.27-1.127.693l-5.122 9.652-10.437-3.227a1.31 1.31 0 0 0-1.281.319L7.436 11.3a1.298 1.298 0 0 0-.319 1.291l3.228 10.434L.68 28.132C.256 28.35 0 28.797 0 29.273v5.467c0 .473.256.91.68 1.127l9.665 5.12-3.228 10.434c-.14.462-.014.949.319 1.292l3.865 3.84c.332.332.833.461 1.281.318l10.437-3.213 5.122 9.663c.22.424.654.679 1.127.679h5.454c.473 0 .91-.255 1.138-.679l5.122-9.663 10.422 3.213c.462.14.949.014 1.281-.319l3.88-3.84c.332-.346.462-.832.318-1.29l-3.228-10.434 9.655-5.12c.424-.218.69-.652.69-1.128v-5.467a1.282 1.282 0 0 0-.686-1.137zM36.31 48.257a16.872 16.872 0 0 0 3.214-1.218c-1.026.525-2.1.934-3.214 1.218zm7.18-3.969c-.09.077-.178.165-.27.231.092-.077.18-.168.27-.245.396-.37.512-.959.295-1.46a12.949 12.949 0 0 0-11.791-7.63c-5.07 0-9.705 2.997-11.781 7.63-.217.501-.102 1.089.294 1.46-3.389-3.136-5.325-7.616-5.325-12.274 0-9.268 7.54-16.818 16.811-16.818 9.281 0 16.823 7.553 16.823 16.818a16.861 16.861 0 0 1-5.325 12.288zM31.995 22.784a5.169 5.169 0 0 0-5.16 5.16 5.16 5.16 0 0 0 5.16 5.158 5.16 5.16 0 0 0 5.17-5.159c.004-2.842-2.313-5.159-5.17-5.159z"/>
</svg>
