<svg xmlns="http://www.w3.org/2000/svg" width="100" height="16" viewBox="0 0 100 16">
    <g fill="#F5A623" fill-rule="evenodd">
        <path d="M7.983 0a.348.348 0 0 0-.313.24L5.927 5.468H.347a.348.348 0 0 0-.205.627L4.673 9.41l-1.742 5.411a.347.347 0 0 0 .535.388L8 11.893l4.533 3.316c.122.088.287.089.409 0a.347.347 0 0 0 .126-.388L11.326 9.41l4.533-3.315a.348.348 0 0 0-.205-.626h-5.581L8.33.24A.348.348 0 0 0 7.983 0zM28.983 0a.348.348 0 0 0-.313.24l-1.743 5.228h-5.58a.348.348 0 0 0-.205.627l4.532 3.315-1.742 5.411a.347.347 0 0 0 .535.388L29 11.893l4.533 3.316c.122.088.287.089.409 0a.347.347 0 0 0 .126-.388L32.326 9.41l4.533-3.315a.348.348 0 0 0-.205-.626h-5.581L29.33.24a.348.348 0 0 0-.347-.24zM49.983 0a.348.348 0 0 0-.313.24l-1.743 5.228h-5.58a.348.348 0 0 0-.205.627l4.532 3.315-1.742 5.411a.347.347 0 0 0 .535.388L50 11.893l4.533 3.316c.122.088.287.089.409 0a.347.347 0 0 0 .126-.388L53.326 9.41l4.533-3.315a.348.348 0 0 0-.205-.626h-5.581L50.33.24a.348.348 0 0 0-.347-.24zM70.983 0a.348.348 0 0 0-.313.24l-1.743 5.228h-5.58a.348.348 0 0 0-.205.627l4.532 3.315-1.742 5.411a.347.347 0 0 0 .535.388L71 11.893l4.533 3.316c.122.088.287.089.409 0a.347.347 0 0 0 .126-.388L74.326 9.41l4.533-3.315a.348.348 0 0 0-.205-.626h-5.581L71.33.24a.348.348 0 0 0-.347-.24zM91.983 0a.348.348 0 0 0-.313.24l-1.743 5.228h-5.58a.348.348 0 0 0-.205.627l4.532 3.315-1.742 5.411a.347.347 0 0 0 .535.388L92 11.893l4.533 3.316c.122.088.287.089.409 0a.347.347 0 0 0 .126-.388L95.326 9.41l4.533-3.315a.348.348 0 0 0-.205-.626h-5.581L92.33.24a.348.348 0 0 0-.347-.24z"/>
    </g>
</svg>
