<?xml version="1.0" encoding="utf-8"?>
<!-- Generator: Adobe Illustrator 22.0.0, SVG Export Plug-In . SVG Version: 6.00 Build 0)  -->
<svg version="1.1" id="Layer_1" xmlns="http://www.w3.org/2000/svg" xmlns:xlink="http://www.w3.org/1999/xlink" x="0px" y="0px"
	 viewBox="0 0 238 41.6" style="enable-background:new 0 0 238 41.6;" xml:space="preserve">
<style type="text/css">
	.st0{clip-path:url(#SVGID_2_);fill:#FFFFFF;}
</style>
<g>
	<defs>
		<rect id="SVGID_1_" width="238" height="41.6"/>
	</defs>
	<clipPath id="SVGID_2_">
		<use xlink:href="#SVGID_1_"  style="overflow:visible;"/>
	</clipPath>
	<path class="st0" d="M235.9,33.3v4.4c0,0.7-0.2,1.3-0.5,1.7c-0.4,0.4-0.8,0.6-1.4,0.6c-0.6,0-1-0.2-1.4-0.5
		c-0.3-0.4-0.5-0.9-0.5-1.5v-4.5H230v4.8c0,1.1,0.3,2,0.8,2.6c0.6,0.6,1.3,0.9,2.3,0.9c0.7,0,1.2-0.2,1.7-0.5
		c0.5-0.3,0.9-0.7,1.1-1.3v1.7h2.1v-8.2H235.9z M224,35c0.6,0,1.2,0.2,1.6,0.6c0.4,0.4,0.6,1,0.6,1.7c0,0.7-0.2,1.3-0.6,1.7
		c-0.4,0.4-0.9,0.6-1.6,0.6c-0.7,0-1.2-0.2-1.6-0.6c-0.4-0.4-0.6-1-0.6-1.7c0-0.7,0.2-1.3,0.6-1.7C222.8,35.2,223.3,35,224,35
		 M223.3,33.2c-0.7,0-1.3,0.2-1.9,0.5c-0.6,0.3-1,0.8-1.3,1.5c-0.3,0.6-0.5,1.4-0.5,2.2s0.2,1.6,0.5,2.2c0.3,0.6,0.7,1.1,1.3,1.5
		c0.6,0.3,1.2,0.5,1.9,0.5c0.7,0,1.3-0.2,1.8-0.5c0.5-0.3,0.8-0.8,1.1-1.3v1.7h2.1v-8.2h-2.1V35c-0.2-0.6-0.6-1-1.1-1.3
		C224.6,33.4,224,33.2,223.3,33.2 M216.5,41.5h2.3v-2.2h-2.3V41.5z M211.9,33.2c-0.6,0-1.2,0.2-1.7,0.5c-0.5,0.3-0.9,0.8-1.1,1.3
		c-0.2-0.6-0.6-1-1.1-1.4c-0.5-0.3-1.1-0.5-1.7-0.5c-0.6,0-1.2,0.1-1.6,0.4c-0.5,0.3-0.8,0.7-1,1.2v-1.6h-2.1v8.2h2.1v-4.4
		c0-0.7,0.2-1.2,0.5-1.6c0.3-0.4,0.8-0.5,1.4-0.5c0.6,0,1,0.2,1.3,0.5c0.3,0.3,0.5,0.8,0.5,1.5v4.5h2.1v-4.4c0-0.7,0.2-1.2,0.5-1.6
		c0.3-0.4,0.8-0.5,1.4-0.5c0.6,0,1,0.2,1.3,0.5c0.3,0.3,0.5,0.8,0.5,1.5v4.5h2.1v-4.8c0-1.1-0.3-2-0.9-2.6
		C213.7,33.5,212.9,33.2,211.9,33.2 M195.8,35c0.6,0,1.1,0.2,1.5,0.6c0.4,0.4,0.6,1,0.6,1.8s-0.2,1.4-0.6,1.8
		c-0.4,0.4-0.9,0.6-1.5,0.6c-0.6,0-1.1-0.2-1.5-0.6c-0.4-0.4-0.6-1-0.6-1.8s0.2-1.4,0.6-1.8C194.7,35.2,195.2,35,195.8,35
		 M195.8,33.2c-0.8,0-1.5,0.2-2.2,0.5c-0.6,0.3-1.1,0.8-1.5,1.5c-0.4,0.6-0.5,1.4-0.5,2.2s0.2,1.6,0.5,2.2c0.4,0.6,0.9,1.1,1.5,1.5
		c0.6,0.3,1.4,0.5,2.2,0.5c0.8,0,1.5-0.2,2.2-0.5c0.6-0.3,1.1-0.8,1.5-1.5c0.4-0.6,0.5-1.4,0.5-2.2s-0.2-1.6-0.5-2.2
		c-0.4-0.6-0.9-1.1-1.5-1.5C197.3,33.4,196.6,33.2,195.8,33.2 M186.5,33.2c-0.8,0-1.5,0.2-2.1,0.5c-0.6,0.3-1.1,0.8-1.5,1.5
		c-0.3,0.6-0.5,1.4-0.5,2.2s0.2,1.6,0.5,2.2c0.3,0.6,0.8,1.1,1.5,1.5c0.6,0.3,1.3,0.5,2.1,0.5c1.1,0,1.9-0.3,2.6-0.9
		c0.7-0.6,1.1-1.4,1.3-2.3h-2.2c-0.1,0.4-0.3,0.8-0.6,1s-0.7,0.4-1.2,0.4c-0.6,0-1-0.2-1.4-0.6c-0.4-0.4-0.6-1-0.6-1.8
		c0-0.8,0.2-1.4,0.6-1.8c0.4-0.4,0.8-0.6,1.4-0.6c0.5,0,0.9,0.1,1.2,0.4c0.3,0.3,0.5,0.6,0.6,1h2.2c-0.2-1-0.6-1.8-1.3-2.3
		C188.5,33.5,187.6,33.2,186.5,33.2 M179.2,41.5h2.3v-2.2h-2.3V41.5z"/>
	<path class="st0" d="M229.1,6.5c-2.3,0-4.2,0.5-5.5,1.6c-1.3,1.1-2,2.5-2,4.3c0,1.4,0.3,2.4,1,3.2c0.7,0.8,1.5,1.3,2.4,1.7
		c0.9,0.4,2.1,0.7,3.7,1c1.1,0.3,1.9,0.5,2.5,0.7c0.6,0.2,1.1,0.5,1.5,0.8c0.4,0.4,0.6,0.8,0.6,1.4c0,0.7-0.2,1.2-0.7,1.7
		c-0.5,0.4-1.1,0.6-2,0.6c-1.2,0-2.2-0.3-2.9-0.9c-0.8-0.6-1.2-1.4-1.3-2.3h-4.9c0.3,2.2,1.3,3.9,2.9,5s3.7,1.8,6.3,1.8
		c2.3,0,4.1-0.5,5.4-1.6c1.3-1.1,2-2.5,2-4.2c0-1.4-0.3-2.5-1-3.3c-0.7-0.8-1.5-1.4-2.5-1.8c-1-0.4-2.2-0.7-3.7-1.1
		c-1.1-0.3-1.9-0.5-2.5-0.7c-0.6-0.2-1.1-0.5-1.5-0.8c-0.4-0.3-0.6-0.8-0.6-1.3c0-0.7,0.2-1.3,0.7-1.7c0.5-0.4,1.2-0.6,2-0.6
		c1.1,0,2,0.3,2.7,0.9c0.7,0.6,1.1,1.4,1.3,2.3h4.8c-0.4-2.1-1.3-3.7-2.8-4.9C233.5,7.1,231.5,6.5,229.1,6.5 M213.4,15.5h-9.8
		c0.1-1.6,0.6-2.9,1.6-3.7c0.9-0.8,2.1-1.3,3.5-1.3c1.4,0,2.5,0.4,3.4,1.3C213,12.7,213.4,13.9,213.4,15.5 M218.5,16.1
		c0-1.8-0.4-3.5-1.2-4.9c-0.8-1.4-2-2.6-3.5-3.4c-1.5-0.8-3.2-1.2-5.2-1.2c-2,0-3.7,0.4-5.2,1.2c-1.5,0.8-2.7,2-3.6,3.6
		c-0.8,1.6-1.3,3.4-1.3,5.5s0.4,3.9,1.3,5.5s2,2.7,3.6,3.6c1.5,0.8,3.3,1.3,5.2,1.3c1.7,0,3.2-0.3,4.6-0.9c1.4-0.6,2.5-1.5,3.4-2.6
		c0.9-1.1,1.4-2.4,1.7-3.8h-5.4c-0.2,1-0.7,1.8-1.5,2.4c-0.8,0.6-1.8,0.9-3,0.9c-1.3,0-2.4-0.4-3.3-1.3c-0.9-0.8-1.4-2.2-1.5-4h14.7
		C218.5,17.1,218.5,16.6,218.5,16.1 M186.9,6.5c-2.3,0-4.2,0.5-5.5,1.6c-1.3,1.1-2,2.5-2,4.3c0,1.4,0.3,2.4,1,3.2
		c0.7,0.8,1.5,1.3,2.4,1.7c0.9,0.4,2.1,0.7,3.7,1c1.1,0.3,1.9,0.5,2.5,0.7c0.6,0.2,1.1,0.5,1.5,0.8c0.4,0.4,0.6,0.8,0.6,1.4
		c0,0.7-0.2,1.2-0.7,1.7c-0.5,0.4-1.1,0.6-2,0.6c-1.2,0-2.2-0.3-2.9-0.9c-0.8-0.6-1.2-1.4-1.3-2.3h-4.9c0.3,2.2,1.3,3.9,2.9,5
		c1.6,1.2,3.7,1.8,6.3,1.8c2.3,0,4.1-0.5,5.4-1.6c1.3-1.1,2-2.5,2-4.2c0-1.4-0.3-2.5-1-3.3c-0.7-0.8-1.5-1.4-2.5-1.8
		c-1-0.4-2.2-0.7-3.7-1.1c-1.1-0.3-1.9-0.5-2.5-0.7c-0.6-0.2-1.1-0.5-1.5-0.8c-0.4-0.3-0.6-0.8-0.6-1.3c0-0.7,0.2-1.3,0.7-1.7
		c0.5-0.4,1.2-0.6,2-0.6c1.1,0,2,0.3,2.7,0.9c0.7,0.6,1.1,1.4,1.3,2.3h4.8c-0.4-2.1-1.3-3.7-2.8-4.9C191.3,7.1,189.3,6.5,186.9,6.5
		 M170,10.6V6.8h-5.1v20.1h5.1v-9.7c0-3.5,1.9-5.2,5.6-5.2h1.5V6.5c-1.5,0-2.9,0.4-4.1,1.1C171.7,8.3,170.8,9.3,170,10.6 M155.1,6.8
		v10.7c0,1.8-0.4,3.1-1.3,4.1c-0.9,0.9-2,1.4-3.5,1.4c-1.4,0-2.5-0.4-3.3-1.3c-0.8-0.9-1.2-2.1-1.2-3.7V6.8h-5.1v11.7
		c0,2.7,0.7,4.9,2.1,6.4c1.4,1.5,3.2,2.3,5.6,2.3c1.6,0,3-0.4,4.2-1.1c1.2-0.8,2.1-1.8,2.6-3.2v4.1h5.1V6.8H155.1z M127,10.9
		c1.4,0,2.6,0.5,3.6,1.5c1,1,1.5,2.5,1.5,4.4s-0.5,3.4-1.5,4.4c-1,1-2.2,1.5-3.6,1.5c-1.4,0-2.6-0.5-3.6-1.5c-1-1-1.5-2.5-1.5-4.4
		s0.5-3.4,1.5-4.4C124.4,11.4,125.6,10.9,127,10.9 M127,6.5c-2,0-3.7,0.4-5.3,1.2c-1.6,0.8-2.8,2-3.7,3.6c-0.9,1.6-1.3,3.4-1.3,5.5
		s0.4,3.9,1.3,5.5s2.1,2.7,3.7,3.6c1.6,0.8,3.3,1.3,5.3,1.3c2,0,3.7-0.4,5.3-1.3s2.8-2,3.7-3.6c0.9-1.5,1.3-3.4,1.3-5.5
		s-0.4-3.9-1.3-5.5c-0.9-1.6-2.1-2.8-3.7-3.6C130.8,6.9,129,6.5,127,6.5 M104.4,6.5c-2,0-3.7,0.4-5.2,1.2c-1.5,0.8-2.7,2-3.6,3.6
		c-0.8,1.6-1.3,3.4-1.3,5.5s0.4,3.9,1.3,5.5c0.8,1.5,2,2.7,3.6,3.6c1.5,0.8,3.3,1.3,5.2,1.3c2.6,0,4.8-0.7,6.5-2.1
		c1.7-1.4,2.8-3.3,3.3-5.7h-5.4c-0.2,1.1-0.7,1.9-1.5,2.5c-0.8,0.6-1.8,0.9-2.9,0.9c-1.4,0-2.5-0.5-3.4-1.5c-0.9-1-1.4-2.5-1.4-4.4
		s0.5-3.4,1.4-4.4c0.9-1,2-1.5,3.4-1.5c1.2,0,2.2,0.3,2.9,0.9c0.8,0.6,1.3,1.5,1.5,2.5h5.4c-0.4-2.4-1.5-4.3-3.3-5.7
		C109.1,7.2,107,6.5,104.4,6.5 M89.7,22.5c-0.9,0-1.6-0.2-2-0.6c-0.4-0.4-0.6-1.1-0.6-2v-8.8h4.5V6.8h-4.5v-5H82v5h-2.8v4.3H82v8.7
		c0,2.5,0.6,4.4,1.8,5.4c1.2,1.1,2.9,1.6,5.2,1.6h2.7v-4.4H89.7z M70.9,10.6V6.8h-5.1v20.1h5.1v-9.7c0-3.5,1.9-5.2,5.6-5.2h1.5V6.5
		c-1.5,0-2.9,0.4-4.1,1.1C72.7,8.3,71.7,9.3,70.9,10.6 M34.2,6.5c-1.6,0-3,0.4-4.2,1.1c-1.2,0.8-2.1,1.8-2.6,3.2V0h-5.1v26.9h5.1
		V16.2c0-1.8,0.4-3.1,1.3-4.1c0.9-0.9,2-1.4,3.5-1.4c1.4,0,2.6,0.4,3.4,1.3c0.8,0.9,1.2,2.1,1.2,3.7v11.1h5.1V15.2
		c0-2.8-0.7-4.9-2.1-6.4C38.4,7.2,36.5,6.5,34.2,6.5 M18.4,19.9c0-1.6-0.4-3-1.1-4c-0.7-1-1.6-1.8-2.6-2.3c-1-0.5-2.4-1.1-4-1.6
		c-1.2-0.4-2.1-0.7-2.8-1.1s-1.3-0.7-1.7-1.2S5.5,8.6,5.5,7.8c0-0.9,0.3-1.7,0.9-2.2c0.6-0.5,1.3-0.7,2.3-0.7c1.1,0,1.9,0.3,2.6,0.9
		s1,1.4,1.2,2.3h5.5c-0.2-2.2-1.1-3.9-2.7-5.2c-1.6-1.3-3.8-2-6.5-2C6.1,0.9,4,1.5,2.4,2.8S0,5.8,0,8c0,1.6,0.4,2.9,1.1,3.9
		c0.7,1,1.6,1.7,2.6,2.3c1,0.5,2.3,1,3.9,1.6c1.2,0.4,2.2,0.8,2.9,1.1c0.7,0.3,1.3,0.7,1.7,1.3c0.5,0.5,0.7,1.2,0.7,2
		c0,0.9-0.3,1.6-0.9,2.2c-0.6,0.6-1.4,0.9-2.5,0.9c-1.2,0-2.1-0.3-2.9-1c-0.7-0.7-1.1-1.6-1.3-2.6H0.1c0.1,1.5,0.6,2.9,1.5,4.1
		s2,2.1,3.4,2.7c1.4,0.6,3.1,0.9,4.9,0.9c1.8,0,3.4-0.3,4.7-1c1.3-0.7,2.3-1.5,2.9-2.7C18.1,22.4,18.4,21.2,18.4,19.9"/>
	<path class="st0" d="M63.2,8.3c0-0.2-0.1-0.3-0.2-0.4c-0.2-0.2-0.6-0.2-0.8,0l-2,2.3c-1.8-1.6-4.1-2.6-6.5-2.6
		c-5.3,0-9.6,4.3-9.6,9.6s4.3,9.6,9.6,9.6c2.6,0,5-1,6.8-2.8l-2.6-2.6c-1.1,1.1-2.6,1.8-4.2,1.8c-3.3,0-6-2.7-6-6s2.7-6,6-6
		c1.5,0,3,0.6,4.1,1.6l-1,1.1c-0.2,0.2-0.2,0.6,0,0.8c0.1,0.1,0.3,0.2,0.4,0.1l5.8-0.3c0.2,0,0.3-0.1,0.4-0.2
		c0.1-0.1,0.2-0.3,0.1-0.4L63.2,8.3z"/>
</g>
</svg>
