<?xml version="1.0" encoding="utf-8"?>
<!-- Generator: Adobe Illustrator 19.1.0, SVG Export Plug-In . SVG Version: 6.00 Build 0)  -->
<svg version="1.1" id="Layer_1" xmlns="http://www.w3.org/2000/svg" xmlns:xlink="http://www.w3.org/1999/xlink" x="0px" y="0px"
	 viewBox="91 5.4 238 41.6" style="enable-background:new 91 5.4 238 41.6;" xml:space="preserve">
<style type="text/css">
	.st0{clip-path:url(#SVGID_2_);fill:#D32E2E;}
	.st1{clip-path:url(#SVGID_4_);fill:#FF5722;}
	.st2{clip-path:url(#SVGID_6_);fill:#D32E2E;}
</style>
<g>
	<g>
		<defs>
			<rect id="SVGID_1_" x="91" y="5.4" width="238" height="41.6"/>
		</defs>
		<clipPath id="SVGID_2_">
			<use xlink:href="#SVGID_1_"  style="overflow:visible;"/>
		</clipPath>
		<path class="st0" d="M326.9,38.7v4.4c0,0.7-0.2,1.3-0.5,1.7c-0.4,0.4-0.8,0.6-1.4,0.6c-0.6,0-1-0.2-1.4-0.5
			c-0.3-0.4-0.5-0.9-0.5-1.5v-4.5H321v4.8c0,1.1,0.3,2,0.8,2.6c0.6,0.6,1.3,0.9,2.3,0.9c0.7,0,1.2-0.2,1.7-0.5s0.9-0.7,1.1-1.3v1.7
			h2.1v-8.2h-2.1V38.7z M315,40.4c0.6,0,1.2,0.2,1.6,0.6c0.4,0.4,0.6,1,0.6,1.7s-0.2,1.3-0.6,1.7S315.7,45,315,45s-1.2-0.2-1.6-0.6
			c-0.4-0.4-0.6-1-0.6-1.7s0.2-1.3,0.6-1.7C313.8,40.6,314.3,40.4,315,40.4 M314.3,38.6c-0.7,0-1.3,0.2-1.9,0.5
			c-0.6,0.3-1,0.8-1.3,1.5c-0.3,0.6-0.5,1.4-0.5,2.2s0.2,1.6,0.5,2.2c0.3,0.6,0.7,1.1,1.3,1.5c0.6,0.3,1.2,0.5,1.9,0.5
			c0.7,0,1.3-0.2,1.8-0.5s0.8-0.8,1.1-1.3v1.7h2.1v-8.2h-2.1v1.7c-0.2-0.6-0.6-1-1.1-1.3S315,38.6,314.3,38.6 M307.5,46.9h2.3v-2.2
			h-2.3V46.9z M302.9,38.6c-0.6,0-1.2,0.2-1.7,0.5s-0.9,0.8-1.1,1.3c-0.2-0.6-0.6-1-1.1-1.4c-0.5-0.3-1.1-0.5-1.7-0.5
			c-0.6,0-1.2,0.1-1.6,0.4c-0.5,0.3-0.8,0.7-1,1.2v-1.6h-2.1v8.2h2.1v-4.4c0-0.7,0.2-1.2,0.5-1.6c0.3-0.4,0.8-0.5,1.4-0.5
			c0.6,0,1,0.2,1.3,0.5c0.3,0.3,0.5,0.8,0.5,1.5v4.5h2.1v-4.4c0-0.7,0.2-1.2,0.5-1.6c0.3-0.4,0.8-0.5,1.4-0.5c0.6,0,1,0.2,1.3,0.5
			s0.5,0.8,0.5,1.5v4.5h2.1v-4.8c0-1.1-0.3-2-0.9-2.6C304.7,38.9,303.9,38.6,302.9,38.6 M286.8,40.4c0.6,0,1.1,0.2,1.5,0.6
			c0.4,0.4,0.6,1,0.6,1.8s-0.2,1.4-0.6,1.8c-0.4,0.4-0.9,0.6-1.5,0.6c-0.6,0-1.1-0.2-1.5-0.6c-0.4-0.4-0.6-1-0.6-1.8
			s0.2-1.4,0.6-1.8C285.7,40.6,286.2,40.4,286.8,40.4 M286.8,38.6c-0.8,0-1.5,0.2-2.2,0.5c-0.6,0.3-1.1,0.8-1.5,1.5
			c-0.4,0.6-0.5,1.4-0.5,2.2s0.2,1.6,0.5,2.2c0.4,0.6,0.9,1.1,1.5,1.5c0.6,0.3,1.4,0.5,2.2,0.5c0.8,0,1.5-0.2,2.2-0.5
			c0.6-0.3,1.1-0.8,1.5-1.5c0.4-0.6,0.5-1.4,0.5-2.2s-0.2-1.6-0.5-2.2c-0.4-0.6-0.9-1.1-1.5-1.5C288.3,38.8,287.6,38.6,286.8,38.6
			 M277.5,38.6c-0.8,0-1.5,0.2-2.1,0.5s-1.1,0.8-1.5,1.5c-0.3,0.6-0.5,1.4-0.5,2.2s0.2,1.6,0.5,2.2c0.3,0.6,0.8,1.1,1.5,1.5
			c0.6,0.3,1.3,0.5,2.1,0.5c1.1,0,1.9-0.3,2.6-0.9c0.7-0.6,1.1-1.4,1.3-2.3h-2.2c-0.1,0.4-0.3,0.8-0.6,1s-0.7,0.4-1.2,0.4
			c-0.6,0-1-0.2-1.4-0.6c-0.4-0.4-0.6-1-0.6-1.8s0.2-1.4,0.6-1.8c0.4-0.4,0.8-0.6,1.4-0.6c0.5,0,0.9,0.1,1.2,0.4
			c0.3,0.3,0.5,0.6,0.6,1h2.2c-0.2-1-0.6-1.8-1.3-2.3C279.5,38.9,278.6,38.6,277.5,38.6 M270.2,46.9h2.3v-2.2h-2.3V46.9z"/>
	</g>
	<g>
		<defs>
			<rect id="SVGID_3_" x="91" y="5.4" width="238" height="41.6"/>
		</defs>
		<clipPath id="SVGID_4_">
			<use xlink:href="#SVGID_3_"  style="overflow:visible;"/>
		</clipPath>
		<path class="st1" d="M320.1,11.9c-2.3,0-4.2,0.5-5.5,1.6s-2,2.5-2,4.3c0,1.4,0.3,2.4,1,3.2s1.5,1.3,2.4,1.7c0.9,0.4,2.1,0.7,3.7,1
			c1.1,0.3,1.9,0.5,2.5,0.7c0.6,0.2,1.1,0.5,1.5,0.8c0.4,0.4,0.6,0.8,0.6,1.4c0,0.7-0.2,1.2-0.7,1.7c-0.5,0.4-1.1,0.6-2,0.6
			c-1.2,0-2.2-0.3-2.9-0.9c-0.8-0.6-1.2-1.4-1.3-2.3h-4.9c0.3,2.2,1.3,3.9,2.9,5c1.6,1.1,3.7,1.8,6.3,1.8c2.3,0,4.1-0.5,5.4-1.6
			c1.3-1.1,2-2.5,2-4.2c0-1.4-0.3-2.5-1-3.3s-1.5-1.4-2.5-1.8s-2.2-0.7-3.7-1.1c-1.1-0.3-1.9-0.5-2.5-0.7c-0.6-0.2-1.1-0.5-1.5-0.8
			c-0.4-0.3-0.6-0.8-0.6-1.3c0-0.7,0.2-1.3,0.7-1.7s1.2-0.6,2-0.6c1.1,0,2,0.3,2.7,0.9c0.7,0.6,1.1,1.4,1.3,2.3h4.8
			c-0.4-2.1-1.3-3.7-2.8-4.9C324.5,12.5,322.5,11.9,320.1,11.9 M304.4,20.9h-9.8c0.1-1.6,0.6-2.9,1.6-3.7c0.9-0.8,2.1-1.3,3.5-1.3
			c1.4,0,2.5,0.4,3.4,1.3C304,18.1,304.4,19.3,304.4,20.9 M309.5,21.5c0-1.8-0.4-3.5-1.2-4.9c-0.8-1.4-2-2.6-3.5-3.4
			c-1.5-0.8-3.2-1.2-5.2-1.2s-3.7,0.4-5.2,1.2s-2.7,2-3.6,3.6c-0.8,1.6-1.3,3.4-1.3,5.5s0.4,3.9,1.3,5.5c0.9,1.6,2,2.7,3.6,3.6
			c1.5,0.8,3.3,1.3,5.2,1.3c1.7,0,3.2-0.3,4.6-0.9c1.4-0.6,2.5-1.5,3.4-2.6s1.4-2.4,1.7-3.8h-5.4c-0.2,1-0.7,1.8-1.5,2.4
			c-0.8,0.6-1.8,0.9-3,0.9c-1.3,0-2.4-0.4-3.3-1.3c-0.9-0.8-1.4-2.2-1.5-4h14.7C309.5,22.5,309.5,22,309.5,21.5 M277.9,11.9
			c-2.3,0-4.2,0.5-5.5,1.6s-2,2.5-2,4.3c0,1.4,0.3,2.4,1,3.2s1.5,1.3,2.4,1.7c0.9,0.4,2.1,0.7,3.7,1c1.1,0.3,1.9,0.5,2.5,0.7
			c0.6,0.2,1.1,0.5,1.5,0.8c0.4,0.4,0.6,0.8,0.6,1.4c0,0.7-0.2,1.2-0.7,1.7c-0.5,0.4-1.1,0.6-2,0.6c-1.2,0-2.2-0.3-2.9-0.9
			c-0.8-0.6-1.2-1.4-1.3-2.3h-4.9c0.3,2.2,1.3,3.9,2.9,5c1.6,1.2,3.7,1.8,6.3,1.8c2.3,0,4.1-0.5,5.4-1.6c1.3-1.1,2-2.5,2-4.2
			c0-1.4-0.3-2.5-1-3.3s-1.5-1.4-2.5-1.8s-2.2-0.7-3.7-1.1c-1.1-0.3-1.9-0.5-2.5-0.7c-0.6-0.2-1.1-0.5-1.5-0.8
			c-0.4-0.3-0.6-0.8-0.6-1.3c0-0.7,0.2-1.3,0.7-1.7s1.2-0.6,2-0.6c1.1,0,2,0.3,2.7,0.9c0.7,0.6,1.1,1.4,1.3,2.3h4.8
			c-0.4-2.1-1.3-3.7-2.8-4.9C282.3,12.5,280.3,11.9,277.9,11.9 M261,16v-3.8h-5.1v20.1h5.1v-9.7c0-3.5,1.9-5.2,5.6-5.2h1.5v-5.5
			c-1.5,0-2.9,0.4-4.1,1.1C262.7,13.7,261.8,14.7,261,16 M246.1,12.2v10.7c0,1.8-0.4,3.1-1.3,4.1c-0.9,0.9-2,1.4-3.5,1.4
			c-1.4,0-2.5-0.4-3.3-1.3s-1.2-2.1-1.2-3.7V12.2h-5.1v11.7c0,2.7,0.7,4.9,2.1,6.4c1.4,1.5,3.2,2.3,5.6,2.3c1.6,0,3-0.4,4.2-1.1
			c1.2-0.8,2.1-1.8,2.6-3.2v4.1h5.1V12.2H246.1z M218,16.3c1.4,0,2.6,0.5,3.6,1.5s1.5,2.5,1.5,4.4s-0.5,3.4-1.5,4.4
			s-2.2,1.5-3.6,1.5c-1.4,0-2.6-0.5-3.6-1.5s-1.5-2.5-1.5-4.4s0.5-3.4,1.5-4.4C215.4,16.8,216.6,16.3,218,16.3 M218,11.9
			c-2,0-3.7,0.4-5.3,1.2c-1.6,0.8-2.8,2-3.7,3.6s-1.3,3.4-1.3,5.5s0.4,3.9,1.3,5.5s2.1,2.7,3.7,3.6c1.6,0.8,3.3,1.3,5.3,1.3
			s3.7-0.4,5.3-1.3s2.8-2,3.7-3.6c0.9-1.5,1.3-3.4,1.3-5.5s-0.4-3.9-1.3-5.5c-0.9-1.6-2.1-2.8-3.7-3.6C221.8,12.3,220,11.9,218,11.9
			 M195.4,11.9c-2,0-3.7,0.4-5.2,1.2s-2.7,2-3.6,3.6c-0.8,1.6-1.3,3.4-1.3,5.5s0.4,3.9,1.3,5.5c0.8,1.5,2,2.7,3.6,3.6
			c1.5,0.8,3.3,1.3,5.2,1.3c2.6,0,4.8-0.7,6.5-2.1c1.7-1.4,2.8-3.3,3.3-5.7h-5.4c-0.2,1.1-0.7,1.9-1.5,2.5s-1.8,0.9-2.9,0.9
			c-1.4,0-2.5-0.5-3.4-1.5s-1.4-2.5-1.4-4.4s0.5-3.4,1.4-4.4s2-1.5,3.4-1.5c1.2,0,2.2,0.3,2.9,0.9c0.8,0.6,1.3,1.5,1.5,2.5h5.4
			c-0.4-2.4-1.5-4.3-3.3-5.7C200.1,12.6,198,11.9,195.4,11.9 M180.7,27.9c-0.9,0-1.6-0.2-2-0.6s-0.6-1.1-0.6-2v-8.8h4.5v-4.3h-4.5
			v-5H173v5h-2.8v4.3h2.8v8.7c0,2.5,0.6,4.4,1.8,5.4c1.2,1.1,2.9,1.6,5.2,1.6h2.7v-4.4h-2V27.9z M161.9,16v-3.8h-5.1v20.1h5.1v-9.7
			c0-3.5,1.9-5.2,5.6-5.2h1.5v-5.5c-1.5,0-2.9,0.4-4.1,1.1C163.7,13.7,162.7,14.7,161.9,16 M125.2,11.9c-1.6,0-3,0.4-4.2,1.1
			c-1.2,0.8-2.1,1.8-2.6,3.2V5.4h-5.1v26.9h5.1V21.6c0-1.8,0.4-3.1,1.3-4.1c0.9-0.9,2-1.4,3.5-1.4c1.4,0,2.6,0.4,3.4,1.3
			c0.8,0.9,1.2,2.1,1.2,3.7v11.1h5.1V20.6c0-2.8-0.7-4.9-2.1-6.4C129.4,12.6,127.5,11.9,125.2,11.9 M109.4,25.3c0-1.6-0.4-3-1.1-4
			c-0.7-1-1.6-1.8-2.6-2.3s-2.4-1.1-4-1.6c-1.2-0.4-2.1-0.7-2.8-1.1c-0.7-0.4-1.3-0.7-1.7-1.2c-0.4-0.5-0.7-1.1-0.7-1.9
			c0-0.9,0.3-1.7,0.9-2.2s1.3-0.7,2.3-0.7c1.1,0,1.9,0.3,2.6,0.9c0.7,0.6,1,1.4,1.2,2.3h5.5c-0.2-2.2-1.1-3.9-2.7-5.2
			c-1.6-1.3-3.8-2-6.5-2c-2.7,0-4.8,0.6-6.4,1.9s-2.4,3-2.4,5.2c0,1.6,0.4,2.9,1.1,3.9c0.7,1,1.6,1.7,2.6,2.3c1,0.5,2.3,1,3.9,1.6
			c1.2,0.4,2.2,0.8,2.9,1.1s1.3,0.7,1.7,1.3c0.5,0.5,0.7,1.2,0.7,2c0,0.9-0.3,1.6-0.9,2.2s-1.4,0.9-2.5,0.9c-1.2,0-2.1-0.3-2.9-1
			c-0.7-0.7-1.1-1.6-1.3-2.6h-5.2c0.1,1.5,0.6,2.9,1.5,4.1s2,2.1,3.4,2.7c1.4,0.6,3.1,0.9,4.9,0.9c1.8,0,3.4-0.3,4.7-1
			c1.3-0.7,2.3-1.5,2.9-2.7C109.1,27.8,109.4,26.6,109.4,25.3"/>
	</g>
	<g>
		<defs>
			<rect id="SVGID_5_" x="91" y="5.4" width="238" height="41.6"/>
		</defs>
		<clipPath id="SVGID_6_">
			<use xlink:href="#SVGID_5_"  style="overflow:visible;"/>
		</clipPath>
		<path class="st2" d="M154.2,13.7c0-0.2-0.1-0.3-0.2-0.4c-0.2-0.2-0.6-0.2-0.8,0l-2,2.3c-1.8-1.6-4.1-2.6-6.5-2.6
			c-5.3,0-9.6,4.3-9.6,9.6s4.3,9.6,9.6,9.6c2.6,0,5-1,6.8-2.8l-2.6-2.6c-1.1,1.1-2.6,1.8-4.2,1.8c-3.3,0-6-2.7-6-6s2.7-6,6-6
			c1.5,0,3,0.6,4.1,1.6l-1,1.1c-0.2,0.2-0.2,0.6,0,0.8c0.1,0.1,0.3,0.2,0.4,0.1l5.8-0.3c0.2,0,0.3-0.1,0.4-0.2
			c0.1-0.1,0.2-0.3,0.1-0.4L154.2,13.7z"/>
	</g>
</g>
</svg>
