<svg xmlns="http://www.w3.org/2000/svg" xmlns:xlink="http://www.w3.org/1999/xlink" width="142" height="329" viewBox="0 0 142 329">
    <defs>
        <path id="a" d="M.514.488h8.253V30.94H.514z"/>
        <path id="c" d="M0 .428h47.436v69.956H0z"/>
    </defs>
    <g fill="none" fill-rule="evenodd">
        <path fill="#7E4826" d="M74.867 312c-5.34.954-8.436 1.66-13.913.389-5.675 3.29-22.956 9.02-22.956 9.02L36 326.45s11.78 3.518 14.898 2.292C54.015 327.518 76 318.52 76 318.52s-.043-1.45-.178-3.61c-.176-1.236-.382-2.02-.955-2.911M132.332 322.04s-17.403-7.324-22.559-10.138c-3.81.976-5.39-.975-9.466-.9-.76.016-2.409 1.497-3.073 1.402-1.672 3.13-1.16 6.17-1.16 6.17s18.512 8.465 21.847 9.283c3.339.822 15.079-2.162 15.079-2.162l-.668-3.655z"/>
        <path fill="#263C46" d="M57.363 239.39l1.074 71.634c3.637.935 7.588 1.067 11.241.93 1.941-.071 3.709-.452 5.418-.975l2.47-74.783 2.88-57.07c1.865-5.52 5.205-5.214 5.205-5.214L88 131.132c-5.696-.59-11.385-1.007-16.984-2.328-5.368 5.462-12.69-8.679-15.351-1.945-4.81 12.175-1.64 54.356-1.64 54.356 1.548 26.218 2.977 51.078 3.338 58.176"/>
        <path fill="#263C46" d="M95.106 311.294c3.43.496 6.89.95 10.285.557 2.11-.243 4.395-.811 6.609-1.642l-2.95-65.986c-.43-16.047 1.044-39.155-.593-67.045 0 0 .501-29.921-4.684-41.62-2.871-6.467-11.205-8.73-16.599-13.558-5.294 2.067-10.756 7.187-16.174 8.524l4.303 43.005s3.596-11.485 5.65-6.142l8.625 73.608 5.528 70.3z"/>
        <path fill="#496675" d="M93.215 303.734s.26 4.198.587 7.804c.326 3.605 21.198-.59 21.198-.59l-.347-7.944s-24.169-.1-21.438.73M57.17 303.605s.013 4.133.104 7.689c.096 3.557 17.932.448 17.932.448l.794-8.636s-21.094-.448-18.83.499"/>
        <path fill="#FEC30C" d="M117.944 79.023c-8.21-3.843-25.033-9.699-38.342-10.016-12.55-.298-29.626 9.596-38.47 13.696-1.645.566 12.59 71.297 12.59 71.297h24.316c17.371 0 26.844-1.025 26.844-1.025s14.11-73.24 13.062-73.952"/>
        <path fill="#496675" d="M58.154 147.408L56 154.373s9.249 1.274 26.785.19c17.488-1.083 19.994-2.485 21.038-2.952 1.043-.463-2.87-6.611-2.87-6.611s-6.877 1.612-20.825 2.48c-13.95.866-21.974-.072-21.974-.072"/>
        <path fill="#FEFEFE" d="M56.82 150.727L56 153.67s9.464.91 27.266-.294c17.75-1.2 18.403-2.408 19.607-2.742.54-.151-.816-2.634-.816-2.634s-8.865 1.957-23.026 2.92c-14.158.96-22.211-.193-22.211-.193"/>
        <g transform="translate(133 113)">
            <mask id="b" fill="#fff">
                <use xlink:href="#a"/>
            </mask>
            <path fill="#FEFEFE" d="M8.622 12.612a5.947 5.947 0 0 0-.322-.36L2.58.488.514 30.94l8.253-11.673-.145-6.655z" mask="url(#b)"/>
        </g>
        <path fill="#FEFEFE" d="M112 144.702l.701 30.298 5.299-7.445-.688-29.555z"/>
        <path fill="#78ABC8" d="M115.869 78.216c-5.149-2.939-13.033-5.754-22.027-8.216.299 9.854.002 27.472-.454 41.247-.348 10.518-2.066 42.27-3.057 60.212 8.348-.366 21.09-2.93 21.09-2.93s5.488-89.45 4.448-90.313m-54.547-6.275c-14.698 4.976-21.875 8.95-22.183 10.138-1.632.689 11.612 89.154 11.612 89.154s7.214 1.299 15.664.516c-.982-17.842-2.855-50.418-3.756-68.259-.661-13.054-1.097-24.53-1.337-31.549"/>
        <path fill="#5595B4" d="M67 119l-1-49s-17.962 3.976-18 6.124C47.961 78.273 67 119 67 119M95.096 121L94 69s16.039 3.528 16 5.787C109.962 77.043 95.096 121 95.096 121"/>
        <path fill="#008748" d="M50.825 202.485s16.655 18.6 21.192 24.528c4.534 5.93 13.287 29.428 11.819 34.454-1.467 5.024-6.972 9.853-7.698 10.43-.725.579-9.02-1.475-8.23-1.578.787-.104 7.47-4.12 6.613-10.532-.856-6.41-5.557-25.608-8.957-29.03-3.397-3.42-18.561-24.87-18.561-24.87s-3.948-5.524 3.822-3.402"/>
        <path fill="#77A942" d="M77 273.65s-6.645-3.482-8.606-7.12C66.434 262.891 63.25 254 63.25 254L58 257.55s4.595 13.983 5.545 14.594c.952.61 11.894 2.668 13.455 1.507"/>
        <path fill="#3C9647" d="M33.85 199.16c.631-.028 7.483-.613 12.232.643 4.748 1.255 11.58 6.13 16.381 23.082C67.263 239.84 68 263.05 68 263.05s-6.14 6.521-10.833 6.948c-4.693.426-35.559-70.298-23.316-70.838"/>
        <path fill="#3C9647" d="M39.932 204.662s-8.518-13.04-4.6-14.666c1.682-.698 12.608-.17 12.608-.17s-3.949 15.82-8.008 14.836m9.891-4.977c1.798-4.348 3.587-12.189.505-13.12-3.084-.928-16.166-2.629-18.18-.642-4.67 4.611-.328 18.583.067 21.75.035.296 1.395-.752 1.41-.585l2.657-2.059c11.76 14.29 11.748-.998 13.541-5.344"/>
        <path fill="#77A942" d="M52.327 211.403s12.604 42.853 10.418 57.654c-.118.797-10.266 6.788-16.003 8.741-10.721 3.648-43.719-1.8-46.41-5.792-2.691-3.994 11.827-57.32 13.687-59.34 1.855-2.018 17.293-12.122 21.634-11.65 4.341.471 13.635 3.887 16.674 10.387"/>
        <g transform="translate(0 210)">
            <mask id="d" fill="#fff">
                <use xlink:href="#c"/>
            </mask>
            <path fill="#AFC936" d="M4.138 30.773c2.958-12.248 7.72-22.865 9.184-26.679C16.097 1.717 22.708.173 26.966.464c2.65.182 5.385.422 7.375 1.448.515.264 1.613 1.114 2.271 1.95 4.383 5.58 6.975 13.435 8.098 23.122 1.3 11.215 3.605 19.611 2.377 30.852-.427 3.914-1.05 7.75-1.839 11.565C34.266 72.613 3.056 67.266.474 63.288c-1.323-2.04.193-18.133 3.664-32.515" mask="url(#d)"/>
        </g>
        <path fill="#DAE020" d="M40.561 237.724c-.712-5.704-1.706-11.41-3.187-16.96-1.674-6.294-7.024-9.43-13.632-9.59-3.805-.092-7.76-.316-10.876 2.24-1.423 1.167-2.68 2.484-3.866 3.864 1.175-2.898 2.154-5.158 2.698-6.54 2.897-2.425 9.803-3.999 14.252-3.702 2.767.185 5.627.43 7.703 1.474.54.271 1.686 1.138 2.373 1.992 4.577 5.689 7.287 13.7 8.46 23.577.159 1.344.331 2.646.514 3.921-1.48-.092-2.96-.182-4.439-.276M37.643 241.35l.123.904-.051-.911h-.039a48.24 48.24 0 0 1-.925.02c-.628.01-1.525.013-2.623.007a172.404 172.404 0 0 1-8.497-.265c-6.583-.361-14.395-1.256-19.078-3.105L6 240.55c4.97 1.935 11.766 2.678 18.201 3.103 6.427.414 11.975.358 13.353.323.22-.008.228 0 .446-.021l-.357-2.606z"/>
        <path fill="#78ABC8" d="M44.722 77.449s-5.326 2.51-9.012 7.148c-2.218 2.79-3.702 11.386-4.3 15.263-1.156 7.467-1.92 20.858-2.64 26.266-1.407 10.59-.456 17.874-.456 17.874l14.541-.403c.085-2.277 5.83-33.626 6.615-42.143.4-4.351 2.29-27.982-4.748-24.005"/>
        <path fill="#FCC58B" d="M40.471 165c.032.628 6.187 13.305 6.187 13.305l1.342 7.81-2.981-.943-1.119-4.635-.665 3.848.204 5.879-2.919.196-.758-5.136-.45 5.483-1.526-.031-.475-4.98.024 5.204-1.466-.106-.805-4.864v4.704l-2.18-.66-.884-6.63 3.366-17.08L40.47 165z"/>
        <path fill="#78ABC8" d="M31.517 126.71c-1.377.52-3.642 11.417-3.512 16.264l3.7 34.026L47 175.255l-3.44-35.947L42.411 125s-6.987.229-10.895 1.71M123.53 136.304c4.427 4.264 12.213-.467 17.47-3.73-1.12-4.826-12.139-33.764-15.496-40.399-3.533-6.983-7.43-12.88-9.678-13.172-2.248-.29-5.252 18.112-4.776 28.01.31 6.463 12.615 26.409 12.48 29.29"/>
        <path fill="#FEFEFE" d="M92.857 96.231c-.776.262-.857 7.207-.857 7.207L128.372 106 130 99.63l-3.145-1.6s-30.89-2.845-33.998-1.799"/>
        <path fill="#431B0E" d="M94.49 97.846s-4.438-.322-2.411-1.986c2.027-1.665 30.524 1.498 32.426 1.598.663.034.468-1.698.468-1.698s-27.151-1.986-30.755-1.739c-3.603.247-5.081-.07-5.183 3.772-.101 3.737-4.704 37.073-4.826 38.57-.143 1.739-.855 4.598 1.553 5.82 2.018 1.024 5.142.795 5.142.795l3.585-45.132z"/>
        <path fill="#5A2D20" d="M88 141.641L92.481 96s.72.872 6.31.724c5.59-.151 30.209 1.554 30.209 1.554s-1.946 42.917-2.653 45.034c-.71 2.116-38.122-1.287-38.347-1.671"/>
        <path fill="#FEFEFE" d="M97.123 99.072c-.85.222-2.123 8.874-2.123 8.874L132.223 116l2.777-7.728-2.98-2.419s-31.5-7.673-34.897-6.78"/>
        <path fill="#E1641F" d="M101.903 103.043s-4.38-.91-2.136-2.27c.97-.588 30.05 5.545 31.955 5.707.311.028.277-1.748.277-1.748s-26.537-5.097-29.862-5.488c-3.6-.423-5.046-.738-5.656 3.032-.592 3.664-9.57 35.875-9.888 37.331-.373 1.694-1.458 4.414.776 5.933 1.874 1.274 5.01 1.46 5.01 1.46l9.524-43.957z"/>
        <path fill="#EB881C" d="M88 146.88L98.555 102s.693.42 6.252 1.567c5.472 1.129 30.193 5.599 30.193 5.599s-7.64 42.507-8.632 44.523c-.995 2.013-38.192-6.394-38.368-6.808"/>
        <path fill="#FFEFD4" d="M128.688 126L103 120.528 105.31 109l25.69 5.473z"/>
        <path fill="#FCC58B" d="M80 127.658l2.596-1.17 10.398-.54-6.334-1.847c-.049-.437-.186-1.371.248-2.101l10.118 1.942s8.208 6.17 8.974 6.182l-.985 5.538L83.811 138c-1.158-1.06-1.195-3.015-.773-3.102l-.685-.451s.035-1.48.031-1.482c-.356-.095-.921-1.162-.955-2.174l4.207-.927-4.29.18c-.322.025-1.354-2.355-1.346-2.386"/>
        <path fill="#78ABC8" d="M140.36 128.818c-.73-.345-34.763-1.5-36.649-1.807-1.886-.305-4.064 5.66-3.663 8.915.404 3.257 1.406 5.402 2.805 5.827 1.399.423 32.798 2.534 33.907 2.214 1.11-.319 5.184-2.194 5.235-5.915.05-3.722-.286-8.595-1.634-9.234"/>
        <path fill="#EAAB76" d="M90 67.92L89.304 49 68 49.316l.805 18.979c6.217 3.492 15.51 3.846 21.195-.375"/>
        <path fill="#BD7538" d="M49 17.8l1.656 21.337c.01 1.798 2.272 13.695 3.823 15.935 1.55 2.238 10.814 8.476 14.334 8.904 3.52.431 28.765-5.106 30.297-6.462 1.532-1.357 4.142-6.092 5.853-14.866C106.674 33.875 49.192 12.63 49 17.8"/>
        <path fill="#FCC58B" d="M96.05 39.508c-1.514 4.46-1.537 7.875.896 9.11 2.43 1.236 7.75-.557 9.27-5.016 1.512-4.466.772-9.08-1.663-10.322-2.428-1.236-6.988 1.766-8.502 6.228"/>
        <path fill="#FCC58B" d="M102 38.793c-.035 22.53-16.07 29.891-21.103 30.177-14.723.84-25.79-15.931-26.658-30.65-.98-16.592.29-31.809 18.743-31.308 24.477.668 29.063.668 29.018 31.78"/>
        <path fill="#FCC58B" d="M61.706 39.411c1.821 4.458 1.895 7.887-.909 9.173-2.8 1.284-8.999-.421-10.82-4.879-1.821-4.457-1.022-9.11 1.784-10.402 2.8-1.283 8.128 1.65 9.945 6.108"/>
        <path fill="#804927" d="M66.001 39.958c-.045 2.203 1.256 4.018 2.917 4.042 1.657.025 3.038-1.745 3.08-3.952.05-2.214-1.252-4.018-2.91-4.048-1.664-.025-3.042 1.745-3.087 3.958M90.001 39.95c-.046 2.214 1.26 4.022 2.92 4.05 1.652.023 3.035-1.745 3.078-3.955.046-2.208-1.258-4.02-2.913-4.045-1.655-.03-3.035 1.743-3.085 3.95"/>
        <path fill="#BD7538" d="M74 27.22s-3.212-.581-5.678.144C66.554 27.882 64 29.661 64 29.661L65.274 33s1.914-.525 3.827-1.206c1.896-.667 4.802-.024 4.802-.024L74 27.22zM88 29.205s3.143-.328 5.62-.154c1.767.125 4.38.685 4.38.685L96.9 31s-1.924-.122-3.844-.3c-1.909-.178-4.747.162-4.747.162L88 29.205z"/>
        <path fill="#BD7538" d="M104.637 19.615a7.98 7.98 0 0 0-.086-.411c.02-2.6-.303-5.593-1.232-7.216 0 0-4.775-5.335-9.523-6.65C85.1 2.93 73.39 2.605 62.708 3.363c-1.507.108-5.83 4.336-6.435 4.483-.414.1-4.956 1.9-6.423 6.355-2.632 8.002 1.458 16.99 3.985 27.799.522-.127 1.05-.238 1.58-.343-.603-10.01 1.177-18.463 3.133-29.392 2.034.844 37.23-5.798 41.818 13.378.56 2.34.254 13.738.254 13.738l.9 1.171s1.722-7.045 3.205-6.22c0 0 .674-10.262-.088-14.717"/>
        <path fill="#D38556" d="M78.177 39.041c-.249-.104-.459-.004-.634.222 2.396.74 6.92 3.946 5.921 7.014-.608 1.847-4.998.453-7.464.098.063.138.13.25.206.302.938.66 7.888 2.578 8.66.066 1.245-4.067-6.575-7.654-6.69-7.702"/>
        <path fill="#D74855" d="M79.422 52.962c2.476.005 5.41-.385 8.408-.887l1.17.015c-.614 3.632-3.943 8.064-9.477 7.906C72.226 59.788 70 52 70 52l.518.008c2.914.622 5.885.952 8.904.954"/>
        <path fill="#FEFEFE" d="M79.246 53.553c2.61.002 6.595-.235 9.754-.553l-.24.445c-2.367 1.306-6.052 1.63-10.491 1.541-3.898-.076-6.43-.778-8.027-1.594a3.117 3.117 0 0 1-.242-.366l.527.002c2.847.339 5.772.523 8.72.525"/>
        <path fill="#BD7538" d="M103.072 7.071c-2.685-1.432-5.331-.909-6.886-1.269-4.975-1.147-3.77-1.304-6.12-3.06-5.672-4.242-8.922-2.836-15.064-.633-4.515 1.618-13.482-.405-15.777 6.49-.666 2.002-1.791 4.134-2.225 5.706l3.007-.727c.627 4.843 9.721 4.795 13.96 4.551 3.2-.184 5.925-1.805 9.3-1.487 4.553.428 6.343 3.208 9.028 5.527 2.536 2.186 5.526 4.77 11.142 3.49 3.294-.751 8.034-1.432 9.563-5.291-8.129-.221-3.708-9.98-9.928-13.297"/>
    </g>
</svg>
