<svg xmlns="http://www.w3.org/2000/svg" xmlns:xlink="http://www.w3.org/1999/xlink" width="136" height="339" viewBox="0 0 136 339">
    <defs>
        <path id="a" d="M0 .213h7.663v9.456H0z"/>
    </defs>
    <g fill="none" fill-rule="evenodd">
        <path fill="#183541" d="M27.043 284.49c-1.266 2.129 25.729-3.101 42.436-3.101 19.065 0 29.521 1.86 29.521 1.86L89.775 179l-54.121 1.862s-6.766 100.527-8.611 103.629"/>
        <path fill="#683919" d="M58.954 325c-4.942.787-7.805 1.367-12.872.321-5.25 2.709-21.233 7.43-21.233 7.43L23 336.9s10.896 2.895 13.782 1.885C39.663 337.78 60 330.371 60 330.371s-.04-1.194-.163-2.972c-.163-1.018-.353-1.664-.883-2.399M112.386 332.39s-15.992-6.891-20.73-9.542c-3.502.92-4.953-.916-8.698-.846-.699.016-2.214 1.41-2.824 1.319-1.537 2.946-1.066 5.808-1.066 5.808s17.011 7.966 20.075 8.736c3.068.774 13.857-2.035 13.857-2.035l-.614-3.44z"/>
        <path fill="#006A97" d="M43.99 258.438l.98 66.653c3.327.87 6.94.994 10.278.866 1.775-.065 3.391-.42 4.953-.906l2.26-69.584 2.632-53.104c1.705-5.136 4.759-4.851 4.759-4.851L72 157.705c-5.209-.549-10.41-.937-15.529-2.165-4.907 5.082-11.601-8.076-14.036-1.81-4.396 11.329-1.498 50.576-1.498 50.576 1.415 24.396 2.722 47.528 3.053 54.132"/>
        <path fill="#006A97" d="M78.93 323.353c3.264.455 6.554.87 9.784.51 2.006-.222 4.18-.741 6.286-1.502l-2.806-60.43c-.41-14.696.994-35.858-.564-61.4 0 0 .477-27.402-4.455-38.114-2.732-5.924-10.659-7.996-15.79-12.417-5.036 1.892-10.23 6.581-15.385 7.806l4.093 39.384s3.42-10.52 5.373-5.626l8.205 67.41 5.259 64.38z"/>
        <path fill="#FEFEFE" d="M33.942 163.043c2.028 2.335 17.742 1.337 29.797 1.86 14.278.62 23.59-1.86 28.405-4.294.235-.12.529-.034.794-.051.805-16.844 1.801-35.753 2.809-43.595 1.135-8.837 8.914-22.926 5.305-25.893-3.082-2.537-26.57-9.204-26.57-9.204s-9.48-2.534-23.099 1.068c-22.574 5.968-28.38 9.45-29.817 10.232-3.045 1.65 7.192 30.428 7.192 30.428l5.184 39.45z"/>
        <path fill="#E78E55" d="M96.5 166.498v.004z"/>
        <path fill="#ECA66C" d="M63.773 83.973c6.583-.396 11.965-1.211 12.227-4.328L75.507 61l-22.855 3.695L52 80.718c.601 2.263 7.978 3.484 11.773 3.255"/>
        <path fill="#90502E" d="M37 32.704l1.405 19.033c0 1.603 2.006 12.222 3.412 14.226 1.403 2.005 9.83 7.613 13.04 8.013 3.21.401 26.284-4.406 27.689-5.608 1.405-1.202 3.811-5.411 5.418-13.225C89.569 47.33 37.202 28.095 37 32.704"/>
        <path fill="#FEFEFE" d="M69 66c-.297-.103-.64-.2-1-.305.056-.355.095-.607.088-.695L69 66z"/>
        <path fill="#FCC58B" d="M79.074 53.258c-1.533 3.621-1.572 6.402.85 7.421 2.42 1.02 7.736-.41 9.273-4.032 1.529-3.627.811-7.389-1.614-8.413-2.416-1.018-6.979 1.4-8.509 5.024"/>
        <path fill="#FCC58B" d="M84 52.805c.082 21.804-14.416 26.828-19.135 27.141-16.4 1.088-24.937-14.542-25.676-27.81-.835-14.96.436-28.666 17.746-28.12 22.963.726 26.958.748 27.065 28.789"/>
        <path fill="#FCC58B" d="M46.912 52.24c1.545 3.622 1.592 6.402-.822 7.433-2.411 1.029-7.728-.386-9.273-4.008-1.543-3.623-.837-7.392 1.58-8.426 2.412-1.029 6.974 1.377 8.515 5"/>
        <path fill="#804927" d="M50.002 51.958c-.05 1.653 1.023 3.017 2.406 3.042 1.38.024 2.542-1.297 2.59-2.953.054-1.66-1.024-3.02-2.404-3.047-1.386-.028-2.544 1.298-2.592 2.958M72.002 51.953c-.05 1.66 1.028 3.02 2.411 3.047 1.374.024 2.536-1.297 2.585-2.956.051-1.655-1.026-3.018-2.406-3.044-1.377-.026-2.537 1.297-2.59 2.953"/>
        <path fill="#BD7538" d="M59 41.204s-3.527-.51-6.24.082c-1.945.423-4.76 1.9-4.76 1.9L49.386 46s2.107-.428 4.212-.987c2.086-.55 5.278.013 5.278.013L59 41.204zM71 42.383s3.463-.63 6.19-.274c1.94.26 4.81 1.388 4.81 1.388L80.775 46s-2.116-.255-4.227-.619c-2.098-.364-5.227.294-5.227.294L71 42.383z"/>
        <path fill="#804927" d="M49 29a3.922 3.922 0 0 0-.437-.52A12.926 12.926 0 0 0 47 28l2 1z"/>
        <path fill="#90502E" d="M87.696 33.393a6.563 6.563 0 0 0-.078-.4c.034-2.54-.248-5.466-1.105-7.055 0 0-4.406-5.237-8.812-6.546-8.065-2.395-18.944-2.772-28.873-2.087-1.401.097-5.441 4.206-6.004 4.345-.384.096-4.616 1.829-6.002 6.175-2.49 7.803 1.26 16.605 3.548 27.175.488-.122.978-.229 1.47-.328-.504-9.78 2.57-16.41 4.448-27.075 1.883.834 33.25-7.091 37.407 11.663.507 2.29.161 13.42.161 13.42l.828 1.15s1.64-6.875 3.012-6.059c0 0 .684-10.022 0-14.378"/>
        <path fill="#D38556" d="M64.512 53.045c-.275-.114-.507-.004-.707.248 2.652.82 7.634 4.38 6.484 7.79-.699 2.054-5.555.51-8.289.116.07.154.143.278.225.337 1.034.73 8.727 2.856 9.614.066 1.436-4.521-7.201-8.503-7.327-8.557"/>
        <path fill="#90502E" d="M42.03 25.672c-.86.936 17.27 9.32 23.262 11.038 5.991 1.72 13.511 8.565 14.822 10.154C81.003 47.939 83 42.35 83 40.63c0-1.442-1.41-10.446-10.73-14.96-9.321-4.514-23.14-7.737-30.24 0"/>
        <path fill="#D74855" d="M63.418 65.938c2.216.037 4.847-.246 7.537-.623l1.045.03c-.687 3.933-3.39 6.576-8.345 6.654C57.493 72.097 55 65 55 65l.464.013c2.599.564 5.252.879 7.954.925"/>
        <path fill="#FEFEFE" d="M63.259 66.19c2.335.05 5.907-.335 8.741-.892l-.226.857c-2.153 2.483-5.457 3.041-9.427 2.79-3.486-.22-5.732-1.624-7.142-3.232C55.064 65.277 55 65 55 65l.472.016a31.798 31.798 0 0 0 7.787 1.175"/>
        <path fill="#F1AD6F" d="M88 162.179s1.237 1.56 1.674 1.802c.438.242 3.63-1.869 3.302-1.949-.326-.081-4.53 0-4.976.147"/>
        <path fill="#183541" d="M18.016 16.49s43.669 7.13 47.482 6.466c3.815-.663 34.152-14.163 35.472-15.26C102.29 6.603 59.546-.181 57.648.005c-1.9.185-40.541 15.85-39.632 16.486"/>
        <path fill="#FEC313" d="M36.474 7.582c-3.387 1.505-4.568 3.91-5.126 6.38-.559 2.473-2.581 12.373-2.581 12.373a.71.71 0 0 0 .056.2C26.5 33.195 22 51.619 22 51.619l1.865.417 2.094-8.28c-.754 4.848-1.302 8.699-1.302 8.699l1.896.233 1.512-10.026a772.216 772.216 0 0 0-.329 10.327l1.91.011.843-26.41.227-1.509c.622-3.013 2.09-10.145 2.327-11.442.302-1.652 1.023-3.28 2.114-4.054C36.25 8.812 40 7.2 40 7.2s-1.21-.647-3.526.381"/>
        <path fill="#2A4B59" d="M51.08 34.51c4.766.4 11.755 1.85 13.373 2.49a38.642 38.642 0 0 1 8.068-4.557c4.227-1.774 10.335-2.651 15.479-2.59l-3.503-16.12c-.336-.393-11.19-4.132-25.407-2.165-12.556 1.738-19.402 4.146-23.09 7.597l.545 16.252c4.694-1.278 10.161-1.274 14.534-.907"/>
        <path fill="#21404D" d="M52.213 81.15c-1.327-1.413-25.372 7.633-25.372 7.633-2.434 2.543-3.104 38.558-3.725 51.617C22.9 144.928 12.6 261.261 12 286.315c4.153 3.105 12.039 4.2 16.871 4.89 1.648.236-.47 4.007 2.395 4.426 10.353 1.295 21.033 1.852 21.033.867 0-1.866-.62-96.395 0-120.027.62-23.632 1.242-93.907-.086-95.321M102.634 288.108c.436-.411 10.83-5.396 11.362-5.787 0-.004.002-.008.004-.012-2.329-24.042-14.471-111.208-15.02-115.539-.221-1.739 3.904-35.781 3.524-43.988-.71-15.33-1.76-32.442-3.368-34.092 0 0-23.472-8.948-24.818-7.54-1.347 1.41-1.627 71.367-.997 94.915.63 23.549 2.361 117.74 2.361 119.6 0 1.133 20.509-.745 25.76-3.564 1.67-1.41.108-2.968 1.192-3.993"/>
        <path fill="#21404D" d="M96 87.02c1.608.576 5.361 1.21 6.603 2.524 6.163 6.522 16.35 20.88 20.73 25.915C130.454 123.648 134 130 134 130l-12.939 17c-5.012-4.549-22.71-29.702-24.434-30.98-3.752-2.777-3.043-29.866-.628-29"/>
        <path fill="#FCC58B" d="M100.74 160.012c-.247.026-4.65-1.322-5.245-1.453-2.065-.452-6.907-1.559-6.907-1.559s-.894.797-.477 1.69c.29.618 2.977 1.43 4.458 2.395.565.37 3.84 1.915 3.84 1.915s5.882-3.139 4.33-2.988"/>
        <path fill="#FCC58B" d="M96 163.754L126.569 125s8.012 12.139 4.573 18.281L101.241 171c-1.765-1.18-4.126-2.993-5.241-7.246"/>
        <path fill="#FCC58B" d="M99.992 161.01s-6.169 1.484-7.356 1.36c-1.186-.123-3.559.124-3.559.124s-.621 5.085 1.66 11.121c1.533 4.05 2.175 4.385 2.175 4.385s2.783-.78 3.533-1.562c1.624-1.69 9.834-9.99 10.546-11.225.252-.438-4.983-4.449-6.999-4.202"/>
        <path fill="#21404D" d="M26.233 89.219s.19-.805-2.529.671c-3.239 1.756-5.56 11.53-6.523 17.043-1.574 9.027-5.607 44.197-5.144 50.95.644 9.423 4.1 5.151 4.1 5.151l8.646-3.438c2.08-9.782 3.49-23.892 5.44-32.816.995-4.56 2.083-21.823-3.99-37.561"/>
        <path fill="#FCC58B" d="M21.995 193.752l3.998-38.581s.5-14.699-7.224-14.156c-6.304.442-6.478 9.802-6.769 17.042l3.387 37.798c4.603.546 2.144-.51 6.608-2.103"/>
        <path fill="#21404D" d="M99 159.157L126.758 120s9.516 10.401 9.236 18.834L122 181c-5.286-.817-21.908-17.724-23-21.843"/>
        <path fill="#A7D9F0" d="M78.245 83l-5.218 8.493-9.732-4.772-8.191 5.65-7.027-8.49c-.36.048-.718.101-1.077.161C50.11 89.327 54.668 97 54.668 97l8.64-9.08 10.809 7.936L79 83.06 78.245 83"/>
        <path fill="#EE5E78" d="M63.915 162L58 150.765c.714-8.559 3.656-55.005 3.953-58.452.026-.312 4.766 1.71 4.898-.313L70 149.84c-1.515 4.977-6.085 12.16-6.085 12.16"/>
        <path fill="#EE5E78" d="M63.877 87L70 90.019 64.176 101 58 91.094s5.12-3.763 5.877-4.094"/>
        <path fill="#183541" d="M33 84.832s17.84 54.833 19.154 54.162c.816-.416 1.52-56.215-.289-58.708-.934-1.287-17.235 2.046-18.865 4.546M94 83.832s-17.858 54.833-19.172 54.162c-.814-.416-1.488-56.214.32-58.708.933-1.287 17.223 2.046 18.852 4.546M109 284.87c-3.617-30.26-7.762-77.952-8-80.87l2.173 84c1.42-.589 2.823-1.343 5.827-3.13M28.615 292c1.135-33.769 2.197-68.368 2.385-71l-8 69.734c3.315.64 4.179.965 5.615 1.266M23.404 191.065C22.275 188.767 29.658 122 29.658 122S33 150.277 33 166.937v21.256s-10.383 16.384-9.99 4.458"/>
        <path fill="#E3F4FC" d="M47.818 167S2.873 215.02 1.222 217.165C-.428 219.309 7.669 226 7.669 226L56 176.004 47.818 167z"/>
        <g transform="translate(0 216)">
            <mask id="b" fill="#fff">
                <use xlink:href="#a"/>
            </mask>
            <path fill="#E3F4FC" d="M7.02 9.231c-1.1 1.075-3.156.114-5.109-2.294C-.042 4.525-.52 1.7.58.628c1.1-1.074 3.36.007 5.316 2.418C7.848 5.454 8.12 8.156 7.02 9.231" mask="url(#b)"/>
        </g>
        <path fill="#94CCD4" d="M56.39 175.657c-1.317 1.003-4.355-.27-6.778-2.841-2.425-2.572-3.324-5.468-2.002-6.473 1.32-1.004 4.355.27 6.779 2.844 2.426 2.572 3.323 5.466 2 6.47"/>
        <path fill="#DA1A21" d="M28.284 187.016c.54.175.3 3.99 2.24 7.503 1.242 2.248 5.476 5.014 5.476 5.014s-3.534 3.072-4.581 3.446c-1.05.371-6.567-4.31-7.417-11.523-.103-.881 3.366-4.736 4.282-4.44"/>
        <path fill="#FCC58B" d="M36 198.973l-6.969-4.475s-6.845-2.467-9.905-3.498c-5.374.516-2.37 7.571-1.53 11.827l4.889 7.168c1.313.072 2.95-.713 2.745-1.09l.845-.328s.633-.268 1.578-.248c.269.194 1.76-.907 2.365-1.63l-1.106-1.925 1.582 1.607c.18.257 2.345-1.45 2.358-1.479l-1.059-2.075-4.26-5.355 7.305 3.356c.282-.287 1.003-.994 1.162-1.855"/>
        <path fill="#21404D" d="M14.343 137.935c-.782.973-3.877 18.81-4.595 29.173-.834 12.052-1.148 27.457 0 32.892 0 0 4.595-1.716 12.637-6.865 3.876-2.482 8.615-8.58 8.615-8.58s-3.056-40.306-4.308-44.045c-1.252-3.74-7.342-8.808-12.349-2.575"/>
    </g>
</svg>
